<svg width="128" height="125" viewBox="0 0 128 125" fill="none" xmlns="http://www.w3.org/2000/svg">
<path d="M61.513 25.3422L62.0943 25.258C62.7326 25.1739 63.4282 25.0898 64.1237 25.043C63.9949 24.6018 63.8994 24.1519 63.8379 23.6969C63.7304 22.907 63.6889 22.1098 63.714 21.3132C62.685 21.416 61.6655 21.5656 60.646 21.7245C60.7794 22.3976 60.9318 23.0706 61.0938 23.7343C61.2866 24.2556 61.427 24.7941 61.513 25.3422Z" fill="#EACD87"/>
<path d="M58.0353 26.0712C58.8801 25.8407 59.7313 25.6475 60.5888 25.4917C60.3775 24.9573 60.2397 24.3978 60.1791 23.8277C60.0548 23.1702 59.9784 22.5048 59.9504 21.8366L58.7499 22.0329C58.0829 22.1451 57.416 22.276 56.749 22.4256C57.1758 23.1706 57.4963 23.9695 57.7018 24.7999C57.8365 25.2174 57.9478 25.6418 58.0353 26.0712Z" fill="#EACD87"/>
<path d="M54.5957 27.1651C55.3007 26.9033 56.0154 26.6696 56.73 26.4453L56.9872 26.3705C56.8443 25.9592 56.7585 25.5012 56.6347 25.0992C56.3816 24.2822 56.1906 23.448 56.063 22.6033C54.8627 22.9107 53.6823 23.2884 52.5281 23.7344C53.1039 24.4212 53.6023 25.1671 54.0145 25.9592C54.2346 26.3484 54.4287 26.7512 54.5957 27.1651Z" fill="#EACD87"/>
<path d="M65.1149 25.0337C65.3341 25.0337 65.5532 25.0337 65.7724 25.0337C66.163 24.0989 66.5727 23.1642 67.0396 22.3228C67.0652 22.2601 67.113 22.2085 67.1743 22.1776C67.2356 22.1466 67.3062 22.1385 67.3731 22.1546H67.4684C67.5379 22.1355 67.6122 22.142 67.6772 22.1731C67.7421 22.2041 67.7933 22.2574 67.8209 22.3228C68.2878 23.2109 68.7165 24.1176 69.1072 25.0524C69.4639 25.0032 69.8237 24.9783 70.1839 24.9776C70.1839 24.5757 70.3363 24.1644 70.403 23.7531C70.5459 22.9492 70.6698 22.1452 70.7841 21.332C69.2472 21.1585 67.7002 21.0867 66.1535 21.117C65.6009 21.117 65.0578 21.117 64.5051 21.2011C64.6195 22.0518 64.7529 22.9024 64.9053 23.7437C64.9625 24.2111 65.0768 24.6224 65.1149 25.0337Z" fill="#EACD87"/>
<path d="M80.6542 27.2678C80.8244 26.8159 81.0315 26.3783 81.2736 25.9591C81.5665 25.381 81.9074 24.8276 82.2931 24.3045C81.2577 23.8932 80.2032 23.5162 79.1297 23.1734C79.0059 23.8091 78.8439 24.4354 78.6533 25.043C78.5295 25.4637 78.4437 25.9778 78.2817 26.3798C78.828 26.548 79.3679 26.7319 79.9015 26.9313L80.6542 27.2678Z" fill="#EACD87"/>
<path d="M81.5984 27.6323C82.4654 27.9782 83.323 28.3615 84.171 28.7634C84.3386 28.3209 84.5492 27.8952 84.7998 27.4921C85.08 26.9326 85.3983 26.3924 85.7526 25.8749C84.8506 25.4325 83.9328 25.018 82.999 24.6317L82.1606 26.3049C81.9986 26.7069 81.8366 27.2023 81.5984 27.6323Z" fill="#EACD87"/>
<path d="M73.7755 25.3796C73.846 24.8222 73.977 24.2738 74.1661 23.7437C74.2995 23.1641 74.4329 22.5752 74.5568 21.9863C73.5595 21.7744 72.5559 21.603 71.5459 21.4722C71.5766 22.2148 71.5479 22.9587 71.4601 23.697C71.4116 24.1541 71.3288 24.6072 71.2124 25.0524C72.0795 25.1178 72.9465 25.2487 73.7373 25.3702L73.7755 25.3796Z" fill="#EACD87"/>
<path d="M49.1644 25.417C49.662 26.0746 50.1079 26.7684 50.4983 27.4923C50.7128 27.859 50.9006 28.2401 51.0605 28.6327C51.8989 28.2308 52.7564 27.8662 53.6235 27.5297C53.4234 27.1277 53.271 26.679 53.0804 26.3051L51.9561 24.0709C51.9491 24.0339 51.9491 23.9958 51.9561 23.9588L51.8227 24.0149L51.1938 24.2859C50.4697 24.6038 49.7646 24.959 49.0691 25.3329C49.1064 25.3542 49.1388 25.3829 49.1644 25.417Z" fill="#EACD87"/>
<path d="M77.5774 24.8094C77.7458 24.1652 77.9788 23.539 78.273 22.9398C77.3011 22.6469 76.3197 22.3852 75.3288 22.1546C75.2953 22.7162 75.2253 23.275 75.1192 23.8279C75.0576 24.4128 74.91 24.9858 74.6809 25.5292C75.548 25.6881 76.4055 25.8938 77.2535 26.1274C77.3334 25.6819 77.4416 25.2417 77.5774 24.8094Z" fill="#EACD87"/>
<path d="M44.2288 30.6331C44.629 31.1379 44.9911 31.6614 45.3436 32.1942C45.7724 31.8577 46.2106 31.5212 46.6585 31.2033L47.3731 30.7079C47.0587 30.2966 46.7919 29.8572 46.506 29.4272C46.028 28.8867 45.6796 28.2478 45.4865 27.5576C44.6671 28.1372 43.8731 28.7604 43.1045 29.4272C43.5359 29.7746 43.9145 30.1807 44.2288 30.6331Z" fill="#EACD87"/>
<path d="M31.1378 56.8633C31.2194 55.921 31.3594 54.9845 31.5571 54.0589C31.0521 53.9187 30.5376 53.7972 30.0231 53.7037C29.5085 53.6102 29.0702 53.6289 28.5462 53.5074C28.3556 54.5108 28.2064 55.5172 28.0984 56.5268C29.1244 56.4065 30.1649 56.5217 31.1378 56.8633Z" fill="#EACD87"/>
<path d="M34.1575 46.3938C34.6149 45.3935 35.1103 44.412 35.6629 43.4398L33.9288 42.5705C33.5212 42.3888 33.1236 42.1859 32.7378 41.9629C32.2106 42.9288 31.7215 43.9166 31.2705 44.9261C31.7317 45.0727 32.1757 45.267 32.5949 45.5057C33.138 45.8048 33.6525 46.0759 34.1575 46.3938Z" fill="#EACD87"/>
<path d="M38.2176 39.523C38.7989 38.7378 39.4182 37.9712 40.0661 37.2234C39.6183 36.8027 39.18 36.3821 38.7512 35.9427C38.3558 35.5962 38.0011 35.2074 37.6936 34.7836C36.9568 35.6498 36.2517 36.5441 35.5784 37.4665C35.8928 37.7002 36.1977 37.9806 36.5312 38.2049C37.0552 38.663 37.6364 39.093 38.2176 39.523Z" fill="#EACD87"/>
<path d="M32.786 49.8151C33.0623 49.0392 33.3482 48.282 33.6435 47.5622L33.8341 47.1229L32.1095 46.3096C31.6984 46.1384 31.3004 45.9385 30.9185 45.7113C30.7851 46.0229 30.6581 46.3345 30.5374 46.6461C30.2706 47.3316 30.0229 48.0234 29.7942 48.7214C30.3376 48.8153 30.8662 48.9788 31.3663 49.2075C31.8618 49.3944 32.3287 49.6001 32.786 49.8151Z" fill="#EACD87"/>
<path d="M85.0764 29.2215C85.791 29.5861 86.4866 29.9787 87.1631 30.4087C87.4203 29.9226 87.7347 29.4739 88.0301 29.0065C88.3018 28.5136 88.6209 28.0472 88.9829 27.6137C88.1762 27.1276 87.3504 26.6664 86.5056 26.2302C86.277 26.7911 86.0483 27.3519 85.7815 27.8941C85.583 28.3544 85.3472 28.7983 85.0764 29.2215Z" fill="#EACD87"/>
<path d="M47.2592 28.9786C47.526 29.3993 47.8118 29.8106 48.0596 30.2499C48.7329 29.8324 49.4253 29.4429 50.1367 29.0814C49.9177 28.6935 49.7205 28.294 49.5459 27.8849C49.1839 27.1558 48.898 26.3986 48.5931 25.6508V25.5947C47.6784 26.1057 46.7892 26.6634 45.9253 27.2679C46.4976 27.7304 46.954 28.3157 47.2592 28.9786Z" fill="#EACD87"/>
<path d="M41.838 32.7831C42.2572 33.2256 42.6796 33.6618 43.1052 34.0918C43.6515 33.587 44.2105 33.1009 44.7821 32.6335L43.5816 31.2781C43.1612 30.8661 42.7903 30.4082 42.4763 29.9133C41.8411 30.4555 41.2377 31.0132 40.666 31.5866C41.1022 31.9399 41.4954 32.3414 41.838 32.7831Z" fill="#EACD87"/>
<path d="M39.6467 35.4379C39.9992 35.8119 40.3137 36.1951 40.5995 36.5877C41.2347 35.9085 41.8699 35.2541 42.5051 34.6247C42.0478 34.2321 41.5523 33.8301 41.1617 33.4188C40.7303 33.0727 40.346 32.6737 40.0183 32.2316C39.3831 32.8548 38.7955 33.478 38.2556 34.1012C38.7859 34.4748 39.255 34.9256 39.6467 35.4379Z" fill="#EACD87"/>
<path d="M36.1016 42.6919C36.6098 41.8381 37.156 41.0061 37.7404 40.196C37.1342 39.8662 36.5488 39.501 35.9873 39.1023C35.6728 38.8779 35.3012 38.6349 34.9678 38.3544C34.3325 39.2456 33.7545 40.1617 33.2336 41.1027C33.6546 41.2797 34.0621 41.4859 34.4532 41.7197C35.0154 42.0095 35.5585 42.346 36.1016 42.6919Z" fill="#EACD87"/>
<path d="M35.0438 60.5744H41.9421H48.8404C50.9829 60.5202 53.1269 60.5827 55.2623 60.7614C55.3201 59.5774 55.5578 58.4085 55.9674 57.2933C56.4146 56.0986 57.0583 54.9839 57.873 53.9935C57.2347 54.115 56.5772 54.1898 55.9674 54.302C54.6081 54.57 53.2488 54.8504 51.8894 55.1433C49.3105 55.7104 46.7411 56.3336 44.1812 57.0129C41.6213 57.6922 39.0107 58.4213 36.3492 59.2003C34.8056 59.6583 33.2621 60.1351 31.709 60.5557L35.0438 60.5744Z" fill="#EACD87"/>
<path d="M97.3677 40.2894C97.9521 41.1058 98.5047 41.944 99.0255 42.804C99.6163 42.4208 100.217 42.0468 100.845 41.7103C101.203 41.4983 101.572 41.3048 101.951 41.1308C101.43 40.196 100.874 39.2768 100.283 38.3731C99.9688 38.6349 99.6068 38.8686 99.3304 39.0836C98.7045 39.5282 98.0487 39.9311 97.3677 40.2894Z" fill="#EACD87"/>
<path d="M60.3601 71.1751C60.4268 71.5957 60.484 72.0164 60.5697 72.409C60.8429 73.7426 61.1287 75.0763 61.4273 76.4099C61.9989 78.9401 62.6341 81.4609 63.3329 83.9723C64.0316 86.4838 64.7748 89.0451 65.5624 91.6563C66.0293 93.1707 66.5152 94.6757 66.944 96.1994C66.944 95.1026 66.944 94.0089 66.944 92.9183C66.944 90.681 66.944 88.4438 66.944 86.2065C66.944 83.9723 66.944 81.7288 66.944 79.4947C66.8844 77.4273 66.9417 75.3582 67.1155 73.297C64.6958 73.2822 62.3386 72.5418 60.3601 71.1751Z" fill="#EACD87"/>
<path d="M92.5938 34.7555C93.229 35.3787 93.8642 36.0486 94.4994 36.7653C94.8519 36.3073 95.214 35.8305 95.6141 35.4379C95.9982 34.9397 96.4539 34.4989 96.9671 34.1292C96.3891 33.506 95.7888 32.8828 95.1663 32.2596C94.8434 32.6684 94.476 33.0414 94.0706 33.372C93.6037 33.8675 93.0987 34.3162 92.5938 34.7555Z" fill="#EACD87"/>
<path d="M87.8208 30.8481C88.3353 31.1908 88.8403 31.5523 89.3358 31.9324L89.8598 32.3531C90.2314 31.7735 90.6316 31.2033 91.0604 30.6518C91.3222 30.2793 91.6154 29.9291 91.9369 29.6048C91.2001 29.0626 90.4442 28.5485 89.6693 28.0624C89.4204 28.5537 89.1236 29.0201 88.7831 29.4552C88.4687 29.9133 88.1733 30.39 87.8208 30.8481Z" fill="#EACD87"/>
<path d="M96.5379 35.9521C96.0615 36.4382 95.5851 36.8869 95.061 37.3823C95.6137 38.0055 96.1472 38.6598 96.6617 39.3454L96.8904 39.6632C97.5288 39.1864 98.1672 38.7284 98.796 38.2236C99.0819 37.9993 99.3677 37.7375 99.6726 37.5038C99.4534 37.1953 99.2343 36.8869 99.0056 36.569C98.5483 35.9458 98.0751 35.3569 97.586 34.8023C97.28 35.2216 96.9286 35.6071 96.5379 35.9521Z" fill="#EACD87"/>
<path d="M90.3923 32.7177C90.9545 33.1945 91.5071 33.6525 92.0502 34.1853C92.5266 33.7117 92.9935 33.2287 93.4508 32.7364C93.7731 32.3389 94.1302 31.9698 94.518 31.6334C93.9209 31.1036 93.3111 30.5926 92.6886 30.1003C92.3963 30.4972 92.0781 30.875 91.7358 31.2314L90.3923 32.7177Z" fill="#EACD87"/>
<path d="M74.776 68.7444C78.1299 65.4353 79.1398 59.1909 76.5863 55.1526C75.3893 53.2874 73.5818 51.8766 71.4602 51.1516C69.5858 50.5507 67.5857 50.4311 65.6508 50.8042C63.7159 51.1773 61.9108 52.0307 60.4076 53.283C58.5375 54.8797 57.2746 57.0513 56.8251 59.4432C56.5082 61.1712 56.6349 62.9495 57.1939 64.6174C57.7528 66.2853 58.7263 67.7904 60.0265 68.9968L60.1123 69.0809C60.8158 69.7237 61.6041 70.2708 62.4562 70.7075C64.4528 71.7193 66.7281 72.0748 68.9464 71.7213C71.1646 71.3678 73.2083 70.3242 74.776 68.7444ZM61.9321 66.2672C61.2823 65.6805 60.7657 64.966 60.4161 64.1704C60.0664 63.3747 59.8915 62.5157 59.9026 61.6494C59.9888 60.0216 60.5837 58.4593 61.6065 57.1748C62.6293 55.8904 64.0305 54.946 65.6195 54.4702C67.069 54.0919 68.604 54.1802 69.9985 54.722C71.3931 55.2639 72.5734 56.2307 73.3658 57.4802C74.311 58.9955 74.6293 60.8082 74.2555 62.5464C73.8817 64.2846 72.844 65.8166 71.3554 66.8281C69.9245 67.7198 68.2432 68.1456 66.5512 68.0449C64.8591 67.9442 63.2427 67.3221 61.9321 66.2672Z" fill="#EACD87"/>
<path d="M73.1472 50.1982C73.6335 50.4215 74.1018 50.6809 74.5478 50.9741C74.424 50.3384 74.3477 49.6841 74.2239 49.1045C73.9571 47.7958 73.6744 46.4933 73.3759 45.1971C72.8169 42.7542 72.2008 40.3268 71.5274 37.9151C70.8541 35.5033 70.1236 33.0355 69.336 30.5115C68.8882 29.0906 68.3832 27.7072 68.0116 26.2395C68.0116 27.3052 68.0116 28.3677 68.0116 29.4272C68.0116 31.6769 68.0116 33.9266 68.0116 36.1764C68.0116 38.4292 68.0116 40.6821 68.0116 42.9256C68.0736 45.0085 68.0163 47.0933 67.8401 49.17C69.6655 49.1157 71.4798 49.4673 73.1472 50.1982Z" fill="#EACD87"/>
<path d="M99.7974 61.6121H86.1056C83.88 61.6825 81.6521 61.6106 79.436 61.3971C79.2554 63.8107 78.4449 66.1382 77.0825 68.1557C77.7018 68.0435 78.3402 67.9687 78.9214 67.8565C80.2808 67.5886 81.6401 67.3081 82.9994 67.0152C85.5784 66.4481 88.1478 65.8249 90.7077 65.1456C93.2675 64.4664 95.8782 63.7372 98.5397 62.9582C100.083 62.5002 101.617 62.0234 103.17 61.6028L99.7974 61.6121Z" fill="#EACD87"/>
<path d="M31.7382 53.2831C31.9573 52.3483 32.2336 51.4135 32.529 50.5628C32.0145 50.4039 31.5 50.2357 30.9855 50.058C30.4866 49.9338 30.0015 49.7616 29.5372 49.5439C29.2196 50.5784 28.9464 51.6254 28.7178 52.6848C29.1925 52.6843 29.6657 52.7377 30.1279 52.8437C30.6772 52.9416 31.2163 53.0886 31.7382 53.2831Z" fill="#EACD87"/>
<path d="M98.6827 79.0927C98.628 79.0564 98.5824 79.0085 98.5493 78.9525C98.0157 79.8873 97.4345 80.7286 96.8247 81.5886C96.8718 81.579 96.9205 81.579 96.9676 81.5886C97.6708 81.9082 98.3464 82.2833 98.9876 82.7103C99.3771 82.9508 99.7382 83.233 100.064 83.5516L100.131 83.4582C100.722 82.6231 101.274 81.7662 101.789 80.8875C101.455 80.7379 101.141 80.5416 100.836 80.3827C100.096 79.9889 99.3777 79.5583 98.6827 79.0927Z" fill="#EACD87"/>
<path d="M96.5189 82.1774L96.4427 82.1026C95.871 82.8692 95.2675 83.6139 94.6323 84.3368C95.2898 84.935 95.9186 85.5333 96.5379 86.2064C96.7952 86.4681 97.0906 86.7298 97.3383 87.0103C98.0815 86.1814 98.7866 85.3214 99.4535 84.4303C99.0329 84.1408 98.629 83.8287 98.2435 83.4955C97.6718 83.0187 97.0906 82.6074 96.5189 82.1774Z" fill="#EACD87"/>
<path d="M95.6428 86.6831C95.1125 86.1102 94.6162 85.5078 94.1565 84.879C93.499 85.5988 92.813 86.2905 92.0984 86.9635L92.2127 87.029C92.8511 87.5805 93.4895 88.132 94.1183 88.7023C94.3565 88.9266 94.671 89.179 94.9282 89.4594C95.5253 88.9048 96.1034 88.3315 96.6623 87.7394C96.3007 87.4082 95.9603 87.0554 95.6428 86.6831Z" fill="#EACD87"/>
<path d="M100.569 75.3722C100.524 75.3453 100.486 75.3104 100.454 75.2693C99.9781 76.3288 99.454 77.3601 98.8823 78.3635C98.9519 78.3629 99.0206 78.3789 99.0824 78.4102C99.8351 78.7935 100.607 79.158 101.36 79.5413C101.665 79.7002 101.998 79.8311 102.312 79.9994C102.833 79.0521 103.313 78.0862 103.751 77.1015C103.393 76.9549 103.043 76.7895 102.703 76.6061C101.968 76.2362 101.255 75.8242 100.569 75.3722Z" fill="#EACD87"/>
<path d="M89.5638 89.3379C89.5388 89.2748 89.5388 89.2047 89.5638 89.1416L88.6682 89.8146C88.2299 90.1325 87.7821 90.441 87.3247 90.7494C87.8714 91.3178 88.3509 91.945 88.7539 92.619C88.9731 92.9555 89.2398 93.2827 89.4495 93.6379C90.1799 93.1581 90.8946 92.6595 91.5933 92.1423C91.3932 91.9086 91.2122 91.6562 91.0216 91.4225C90.4982 90.7536 90.0116 90.0577 89.5638 89.3379Z" fill="#EACD87"/>
<path d="M91.688 87.5338C91.6517 87.4991 91.6226 87.4579 91.6023 87.4123C91.037 87.9233 90.4557 88.4156 89.8586 88.8892C89.8954 88.8906 89.9314 88.8996 89.9643 88.9157C89.9971 88.9319 90.0261 88.9547 90.0492 88.9827L91.6976 90.8523C91.9167 91.1047 92.174 91.3571 92.4027 91.6282C93.0061 91.1546 93.5937 90.6622 94.1654 90.1512C93.8986 89.8895 93.6699 89.5903 93.4412 89.3566C92.8695 88.7335 92.2851 88.1258 91.688 87.5338Z" fill="#EACD87"/>
<path d="M86.8576 91.0487C86.178 91.4787 85.4824 91.8869 84.771 92.2733C85.1212 92.8083 85.4119 93.3787 85.638 93.9746C85.8953 94.5074 86.1145 95.0403 86.3336 95.5824C87.1403 95.1587 87.928 94.7069 88.6965 94.227C88.4488 93.8811 88.2392 93.4792 88.0201 93.1426C87.5511 92.4912 87.161 91.7886 86.8576 91.0487Z" fill="#EACD87"/>
<path d="M80.5314 94.2455L79.6263 94.6008C79.1308 94.7877 78.6735 94.956 78.1208 95.1242C78.3288 95.6418 78.4883 96.1768 78.5973 96.7227C78.7688 97.3397 78.9307 97.9473 79.0641 98.5923L80.9697 97.9286L82.1036 97.508C81.7822 97.0233 81.4957 96.5173 81.246 95.9936C80.937 95.4412 80.6971 94.8543 80.5314 94.2455Z" fill="#EACD87"/>
<path d="M101.798 71.9789C101.506 72.8264 101.189 73.6646 100.846 74.4935L100.731 74.7552C100.811 74.7282 100.899 74.7282 100.979 74.7552C101.722 75.1104 102.475 75.447 103.218 75.8115C103.523 75.9611 103.847 76.092 104.171 76.2509C104.565 75.2974 104.92 74.3283 105.238 73.3437C104.809 73.2256 104.389 73.0788 103.98 72.9043C103.237 72.6331 102.509 72.3242 101.798 71.9789Z" fill="#EACD87"/>
<path d="M83.9134 92.7033C83.0876 93.127 82.246 93.5197 81.3884 93.8811C81.6682 94.3951 81.9072 94.9295 82.103 95.4796C82.3635 96.0467 82.6271 96.6107 82.8939 97.1716C83.8149 96.7914 84.7169 96.3801 85.5998 95.9376C85.2515 95.4262 84.9334 94.8957 84.647 94.3485C84.3403 93.8288 84.0942 93.277 83.9134 92.7033Z" fill="#EACD87"/>
<path d="M101.265 47.2069C101.541 47.8613 101.808 48.525 102.056 49.198L102.303 49.9085C102.828 49.6561 103.361 49.413 103.914 49.2074C104.337 49.0257 104.773 48.8757 105.219 48.7587C104.914 47.7678 104.568 46.7894 104.18 45.8234C103.857 46.0104 103.504 46.1506 103.171 46.3095L101.265 47.2069Z" fill="#EACD87"/>
<path d="M101.359 42.5704L99.4536 43.5052C100.006 44.44 100.511 45.4589 100.969 46.4779C101.529 46.1181 102.107 45.7874 102.703 45.487C103.068 45.2841 103.447 45.106 103.837 44.9541C103.417 43.957 102.957 42.9755 102.455 42.0096C102.102 42.2432 101.712 42.3928 101.359 42.5704Z" fill="#EACD87"/>
<path d="M102.551 50.647C102.836 51.5818 103.094 52.4512 103.303 53.3953C103.902 53.1505 104.525 52.9657 105.161 52.8438C105.513 52.7703 105.87 52.7173 106.228 52.6849C106.019 51.6753 105.774 50.6751 105.495 49.6842C105.123 49.8525 104.704 49.9459 104.313 50.0862C103.722 50.2731 103.132 50.4788 102.551 50.647Z" fill="#EACD87"/>
<path d="M103.513 65.1643C103.37 66.0991 103.151 66.9684 102.931 67.8472C102.978 67.8367 103.027 67.8367 103.074 67.8472C103.793 68.0708 104.525 68.2518 105.266 68.3893C105.628 68.4548 106.019 68.4641 106.4 68.5202C106.59 67.4919 106.743 66.4574 106.857 65.4167C105.739 65.6256 104.585 65.5385 103.513 65.1643Z" fill="#EACD87"/>
<path d="M103.456 54.1524C103.63 55.0537 103.742 55.9657 103.789 56.882C104.774 56.5585 105.829 56.4941 106.848 56.695C106.74 55.6543 106.59 54.6198 106.4 53.5915C106.019 53.6476 105.628 53.6569 105.256 53.7224C104.649 53.8361 104.048 53.9796 103.456 54.1524Z" fill="#EACD87"/>
<path d="M106.924 61.4344C105.876 61.9579 104.79 62.4253 103.685 62.8646C103.696 63.383 103.671 63.9015 103.609 64.4164C104.257 64.4725 104.914 64.5286 105.514 64.5379C105.97 64.5202 106.427 64.5484 106.877 64.6221C106.972 63.5128 107.023 62.4004 107.029 61.2849C107.01 61.3439 106.974 61.396 106.924 61.4344Z" fill="#EACD87"/>
<path d="M102.789 68.5201L102.675 68.9595C102.474 69.7541 102.246 70.5393 101.998 71.3245H102.103C102.846 71.5676 103.599 71.7919 104.332 72.0443C104.704 72.1752 105.114 72.2686 105.476 72.4276C105.768 71.4367 106.022 70.4396 106.238 69.4362C105.883 69.4033 105.53 69.3503 105.18 69.2773C104.356 69.1165 103.554 68.8624 102.789 68.5201Z" fill="#EACD87"/>
<path d="M103.857 57.6953C103.855 58.2139 103.823 58.732 103.761 59.247C104.857 59.677 105.934 60.1818 106.963 60.6773C107.031 60.7109 107.085 60.7672 107.115 60.8362C107.115 59.7269 107.064 58.6176 106.963 57.5083C106.513 57.582 106.056 57.6102 105.6 57.5925C104.981 57.6018 104.4 57.6392 103.857 57.6953Z" fill="#EACD87"/>
<path d="M77.1773 95.414C76.3135 95.6758 75.4432 95.9064 74.5667 96.1058C74.757 96.6617 74.891 97.2347 74.9668 97.8165C75.1038 98.4336 75.2056 99.0578 75.2717 99.6861C76.2245 99.4243 77.1773 99.1439 78.1301 98.8447C77.8941 98.2965 77.703 97.7307 77.5585 97.1528C77.3669 96.5886 77.2391 96.0056 77.1773 95.414Z" fill="#EACD87"/>
<path d="M39.9129 84.9258C39.2777 84.1905 38.6933 83.427 38.1597 82.6356C37.5976 83.0562 37.0354 83.4675 36.4923 83.8976C36.2065 84.1219 35.9111 84.393 35.5967 84.6267C36.2319 85.5116 36.8893 86.3685 37.569 87.1974C37.7881 86.9637 38.0263 86.758 38.236 86.543C38.7791 86.0008 39.3412 85.4493 39.9129 84.9258Z" fill="#EACD87"/>
<path d="M31.0999 59.3218C31.0702 58.7613 31.0702 58.1997 31.0999 57.6392C30.471 57.5831 29.8422 57.5364 29.1942 57.527C28.7998 57.5374 28.4051 57.5218 28.0128 57.4803C28.0128 57.9757 27.9365 58.4805 27.9175 58.9853C27.9689 59.5731 27.9689 60.1642 27.9175 60.752C28.9275 60.2192 30.0041 59.7518 31.0999 59.3218Z" fill="#EACD87"/>
<path d="M35.6927 78.6627C35.1654 77.6905 34.6795 76.6965 34.2349 75.6807C33.7049 76.0191 33.158 76.3311 32.596 76.6155C32.2118 76.8309 31.8103 77.0154 31.3955 77.167C31.8338 78.1641 32.307 79.1456 32.8152 80.1116C33.1677 79.8966 33.5774 79.7377 33.93 79.5507L35.6927 78.6627Z" fill="#EACD87"/>
<path d="M42.4861 87.7021C41.7683 87.0103 41.0791 86.2843 40.4185 85.524C40.0173 86.0597 39.5879 86.5745 39.1322 87.0664C38.8654 87.3469 38.5796 87.7114 38.2556 88.0012C38.8273 88.6618 39.4244 89.3006 40.0469 89.9175C40.3399 89.6245 40.6484 89.3468 40.9711 89.0856C41.438 88.6088 41.9239 88.1508 42.4861 87.7021Z" fill="#EACD87"/>
<path d="M33.9198 74.9515C33.5831 74.1414 33.2655 73.3219 32.967 72.493L32.8812 72.2313C32.3762 72.4743 31.8712 72.6987 31.3472 72.895C30.8877 73.0967 30.4089 73.2533 29.918 73.3624C30.2419 74.3595 30.604 75.3441 31.0042 76.3163C31.3377 76.1107 31.7283 75.9611 32.0808 75.7928L33.9198 74.9515Z" fill="#EACD87"/>
<path d="M31.147 64.5005C31.1183 63.9961 31.1183 63.4905 31.147 62.9861C30.0418 62.5561 28.946 62.0514 27.8979 61.5559C27.8979 62.5904 27.9615 63.6218 28.0885 64.6501C28.5268 64.6033 28.9746 64.6501 29.4034 64.6501C29.9846 64.5005 30.5658 64.5005 31.147 64.5005Z" fill="#EACD87"/>
<path d="M31.6814 68.006C31.4695 67.1062 31.3136 66.1947 31.2145 65.2764C30.6638 65.3839 30.107 65.4588 29.5471 65.5007C29.0969 65.5392 28.6442 65.5392 28.1941 65.5007C28.3211 66.5166 28.4831 67.5261 28.68 68.5295C29.1183 68.4453 29.6328 68.4453 30.0235 68.3612C30.4141 68.2771 31.1383 68.1649 31.6814 68.006Z" fill="#EACD87"/>
<path d="M32.6716 71.4928C32.3857 70.6141 32.1094 69.7073 31.8712 68.7725C31.3111 68.9952 30.7304 69.1643 30.1371 69.2773C29.7206 69.3703 29.2965 69.4266 28.8699 69.4456C29.0985 70.4738 29.3653 71.4959 29.6702 72.5117C30.0944 72.3306 30.5305 72.1776 30.9756 72.0536C31.5377 71.848 32.1094 71.6704 32.6716 71.4928Z" fill="#EACD87"/>
<path d="M44.7347 89.6464C44.1566 89.1914 43.5945 88.7147 43.0482 88.2161C42.5528 88.7085 42.0668 89.2101 41.5904 89.7211C41.3332 89.9922 41.0664 90.3381 40.752 90.6559C41.3109 91.1919 41.889 91.7123 42.4861 92.217C42.7528 91.8431 43.1149 91.5066 43.4389 91.1794L44.7347 89.6464Z" fill="#EACD87"/>
<path d="M37.6834 81.9531L37.35 81.4577C36.9117 80.7909 36.4988 80.1116 36.1113 79.4199C35.5682 79.7751 35.0156 80.1116 34.4439 80.4107C34.0747 80.6286 33.6929 80.8252 33.3005 80.9997C33.8278 81.9407 34.3899 82.8599 34.987 83.7573C35.311 83.4862 35.673 83.2525 35.9398 83.0281C36.4988 82.6362 37.081 82.2773 37.6834 81.9531Z" fill="#EACD87"/>
<path d="M70.1643 96.8817C69.8689 96.8817 69.564 96.8817 69.2687 96.8817C68.8494 97.9099 68.3826 98.9195 67.8776 99.9011C67.8504 99.9626 67.8024 100.013 67.7415 100.044C67.6807 100.074 67.6109 100.083 67.5441 100.069H67.4488C67.3792 100.088 67.305 100.082 67.24 100.051C67.175 100.02 67.1239 99.9665 67.0963 99.9011C66.5722 98.9008 66.1435 97.8632 65.6766 96.8069H65.124C65.0999 97.3303 65.0233 97.85 64.8953 98.3586C64.7333 99.2934 64.5904 100.228 64.4761 101.107C65.143 101.107 65.8195 101.107 66.4865 101.107C67.9236 101.067 69.3562 100.929 70.7741 100.696C70.6693 99.901 70.5359 99.1065 70.4025 98.3213C70.2859 97.848 70.2063 97.3668 70.1643 96.8817Z" fill="#EACD87"/>
<path d="M61.2087 97.9099C61.0086 98.8447 60.7894 99.7795 60.6179 100.714C61.6597 100.883 62.7046 100.998 63.7527 101.06C63.7166 100.183 63.758 99.3038 63.8765 98.4334C63.9226 97.8447 64.0541 97.2655 64.2672 96.7134C63.3842 96.6261 62.5013 96.5171 61.6184 96.3862C61.5078 96.9005 61.371 97.409 61.2087 97.9099Z" fill="#EACD87"/>
<path d="M73.5845 96.2834C72.7651 96.4704 71.9171 96.6387 71.0691 96.7508C71.2543 97.2768 71.3727 97.8231 71.4216 98.3774C71.5185 99.0868 71.56 99.8025 71.5455 100.518C72.4983 100.34 73.5273 100.116 74.5087 99.8731C74.3563 99.2 74.1943 98.5363 74.0228 97.8633C73.8413 97.3467 73.6949 96.819 73.5845 96.2834Z" fill="#EACD87"/>
<path d="M57.5401 97.8165C57.3432 98.515 57.0882 99.1966 56.7778 99.8543C57.8196 100.147 58.8708 100.39 59.9316 100.583C59.9717 99.6423 60.08 98.7052 60.2556 97.7791C60.3209 97.2319 60.4324 96.691 60.5891 96.1619C59.7188 96.0123 58.855 95.8378 57.9974 95.6384C57.9774 96.3852 57.8226 97.1227 57.5401 97.8165Z" fill="#EACD87"/>
<path d="M50.1272 93.0305C49.4539 92.7064 48.7964 92.3574 48.1549 91.9835C47.8575 92.5771 47.5168 93.1488 47.1354 93.6942C46.8798 94.1619 46.5866 94.6089 46.2588 95.0309C47.0147 95.5295 47.7928 96.0031 48.5932 96.4518C48.8981 95.704 49.1839 94.9562 49.546 94.227C49.7178 93.8183 49.9118 93.4189 50.1272 93.0305Z" fill="#EACD87"/>
<path d="M54.6528 94.7785C54.4815 95.2586 54.2646 95.7218 54.0049 96.162C53.5951 96.9503 53.1 97.6931 52.5281 98.3775L53.0998 98.6112C54.0145 98.9788 54.9482 99.306 55.901 99.5927C56.063 98.8355 56.2821 98.097 56.5204 97.3585C56.655 96.7122 56.8694 96.0844 57.1587 95.4889C56.3139 95.2708 55.4786 95.034 54.6528 94.7785Z" fill="#EACD87"/>
<path d="M53.6901 94.47L53.3281 94.3484C52.5563 94.0867 51.8131 93.7876 51.0794 93.4604C50.9213 93.8598 50.7334 94.2472 50.5173 94.6195C50.1208 95.3441 49.6685 96.0378 49.1643 96.6948C50.079 97.1933 51.0318 97.6545 52.0227 98.0783C52.0179 98.0473 52.0179 98.0158 52.0227 97.9848L53.147 95.7506C53.2995 95.4141 53.4519 94.9 53.6901 94.47Z" fill="#EACD87"/>
<path d="M47.5443 91.6094C46.7566 91.1233 45.9975 90.6061 45.267 90.0577C44.8859 90.6559 44.4762 91.2355 44.0379 91.7964C43.7862 92.1458 43.5092 92.4769 43.209 92.7873C43.9585 93.4105 44.7335 93.9931 45.5338 94.5353C45.7803 94.0855 46.0605 93.6543 46.3723 93.2453C46.7228 92.6734 47.1144 92.1267 47.5443 91.6094Z" fill="#EACD87"/>
<path d="M114.337 65.2671C114.831 65.1615 115.337 65.1206 115.842 65.1456C115.842 65.1456 116.061 55.6201 115.966 55.5733C115.424 55.5922 114.883 55.639 114.346 55.7135C114.346 55.7135 113.984 52.1239 114.032 51.9744C114.08 51.8248 126.914 51.8529 126.914 51.8529C127.495 52.5913 127.085 57.3401 127.085 57.4149C127.085 57.4896 123.77 57.5083 123.598 57.4896C123.427 57.471 123.331 55.779 123.303 55.7042C122.384 55.6169 121.46 55.6012 120.54 55.6575C120.483 56.5671 120.498 57.4798 120.587 58.387C120.663 58.387 123.084 58.4618 123.084 58.5273C123.084 58.5927 123.274 61.7803 123.207 61.8084C123.141 61.8364 120.54 61.9299 120.492 61.9953C120.444 62.0608 120.444 65.0147 120.444 65.1082C121.424 65.151 122.406 65.1104 123.379 64.9867C123.379 64.9119 124.055 62.5188 124.055 62.4721C124.055 62.4253 128 62.8273 128 62.9021C128 62.9769 127.562 68.8941 127.514 68.9128C127.466 68.9315 114.318 68.7445 114.175 68.8193C114.11 67.6329 114.165 66.4431 114.337 65.2671Z" fill="#734622"/>
<path d="M1.75316 55.863C1.18829 55.6729 0.597026 55.5688 0 55.5545C0.0202243 54.479 0.128558 53.4067 0.323954 52.3482L8.318 52.2267C8.39422 52.2267 8.318 55.6013 8.36564 55.7228C7.71771 55.8331 7.06023 55.88 6.40286 55.863C6.32663 55.863 7.73679 60.967 7.80348 60.9202C7.87018 60.8735 9.93777 55.7135 9.95683 55.7135C9.97588 55.7135 12.4532 55.7882 12.5008 55.8069C12.5485 55.8256 15.4069 61.2474 15.4069 61.1539C15.4069 61.0605 16.4454 55.8537 16.3597 55.8537C16.2739 55.8537 13.911 55.8069 13.8633 55.7789C13.8157 55.7508 13.7966 52.3482 13.8443 52.3482C13.8919 52.3482 22.3719 52.2734 22.4195 52.2734C22.4672 52.2734 22.4958 55.863 22.4958 55.863L20.9617 55.9565L17.8175 68.7912L14.3778 68.8379C14.2826 68.8379 11.3479 62.5655 11.2526 62.5374C11.1574 62.5094 8.27036 68.8566 8.27036 68.8566C8.27036 68.8566 5.41194 68.8566 5.24043 68.7818C5.06893 68.7071 1.90561 56.0313 1.75316 55.863Z" fill="#734622"/>
<path d="M59.3125 13.8069C59.3887 13.7601 60.8656 13.5919 60.9323 13.5451C60.999 13.4984 60.9323 7.00158 60.7893 4.30004C60.273 4.35121 59.7526 4.35121 59.2363 4.30004C59.0767 2.91252 58.9908 1.5178 58.979 0.121523C59.0743 0.0467395 63.9145 0.121523 63.9908 0.121523C64.067 0.121523 69.8505 8.41312 69.9458 8.41312C70.0411 8.41312 69.8505 3.46807 69.8505 3.46807L67.8687 3.34655C67.6996 2.26421 67.6262 1.16953 67.6495 0.0747833C67.7925 0 75.3482 0 75.3482 0C75.4363 1.07594 75.4522 2.15639 75.3959 3.23438C74.8431 3.26477 74.2927 3.3272 73.7475 3.42133C73.7475 3.46807 74.1096 16.8262 73.9857 16.8262C72.7191 16.9454 71.4466 16.9922 70.1745 16.9665C70.0506 16.8262 65.0389 8.55334 65.0389 8.55334C65.0389 8.55334 65.0388 13.2273 65.1627 13.3301C65.2866 13.4329 66.8587 13.4984 66.8587 13.6666C67.0044 14.6194 67.0681 15.5825 67.0493 16.5458C66.8778 16.6393 59.4268 16.9478 59.4268 16.8356C59.4268 16.7234 59.2458 13.8629 59.3125 13.8069Z" fill="#734622"/>
<path d="M61.1035 117.784C62.3519 117.498 63.6338 117.379 64.9147 117.428C65.353 119.046 66.344 119.896 67.1157 119.896C67.2777 119.917 67.4423 119.905 67.5992 119.86C67.7561 119.815 67.9018 119.739 68.0272 119.636C68.1525 119.534 68.2548 119.407 68.3275 119.263C68.4002 119.119 68.4418 118.963 68.4497 118.803C68.4497 117.447 66.8966 117.017 65.4483 116.232C63.295 115.12 61.2083 113.904 61.2083 110.502C61.2083 108.146 63.1902 106.22 66.4392 106.22C66.9282 106.191 67.4182 106.258 67.8799 106.419C68.3416 106.58 68.7655 106.83 69.1262 107.155L69.2977 106.015C70.5471 105.953 71.7985 106.089 73.0041 106.417C73.1279 106.463 72.7087 111.091 72.7087 111.81C72.7087 112.166 68.8975 112.147 68.8975 112.044C68.7736 110.67 67.9447 110.174 67.2015 110.174C67.0344 110.159 66.8658 110.178 66.7063 110.229C66.5468 110.28 66.3999 110.364 66.2747 110.473C66.1494 110.583 66.0487 110.717 65.9786 110.866C65.9086 111.016 65.8707 111.178 65.8676 111.343C65.8676 112.194 67.6874 112.717 69.4787 113.764C71.632 114.998 73.4519 116.26 73.4519 119.186C73.4205 120.416 72.9085 121.587 72.0218 122.457C71.1351 123.327 69.9415 123.829 68.6879 123.86C66.1915 123.86 65.2959 122.925 64.9338 122.532C64.8862 123.056 64.8385 124.009 64.8099 124.009C64.7814 124.009 61.1512 123.794 61.1512 123.794C61.1035 123.262 61.1035 118.99 61.1035 117.784Z" fill="#734622"/>
<path d="M73.3666 57.4802C72.5747 56.2326 71.396 55.267 70.0034 54.7253C68.6109 54.1835 67.078 54.0941 65.6298 54.4702C64.0408 54.946 62.6397 55.8904 61.6168 57.1748C60.594 58.4593 59.9991 60.0216 59.913 61.6494C59.9006 62.5151 60.074 63.3736 60.422 64.1692C60.77 64.9648 61.2848 65.6796 61.9329 66.2672C63.2437 67.3185 64.8589 67.9377 66.5489 68.0367C68.2389 68.1357 69.9177 67.7096 71.3466 66.8188C72.8343 65.8089 73.8721 64.2793 74.2477 62.5432C74.6232 60.8071 74.308 58.9958 73.3666 57.4802ZM65.7441 66.6879C62.8857 66.0335 60.6752 63.0422 61.5899 60.1444C62.5427 56.9941 65.9728 54.788 69.2695 55.9752C70.6433 56.5002 71.7571 57.5256 72.3785 58.8373C73 60.1489 73.0809 61.6454 72.6044 63.0142C72.0991 64.321 71.136 65.4085 69.8875 66.0817C68.6391 66.7549 67.1871 66.9698 65.7918 66.6879H65.7441Z" fill="#734622"/>
<path d="M103.484 40.2988C99.6497 33.3482 93.6688 27.7684 86.4005 24.3606C77.9681 20.4345 68.7926 18.621 59.5504 20.369C53.8137 21.5908 48.4247 24.0459 43.7719 27.5576C42.15 28.7156 40.6181 29.9905 39.1889 31.3715C35.6243 34.8377 32.6831 38.8706 30.4898 43.2994C28.6673 46.9592 27.4148 50.8665 26.7739 54.8909C24.2013 71.3712 32.1953 88.6181 46.8781 97.1621C50.7347 99.4176 54.9613 100.999 59.3694 101.836C64.3314 102.739 69.4351 102.56 74.3189 101.313C77.2818 100.589 80.1862 99.6513 83.0085 98.5082C83.0628 98.514 83.1177 98.5059 83.1678 98.4846C83.2179 98.4633 83.2615 98.4295 83.2943 98.3867C88.6322 96.2621 93.4559 93.0615 97.453 88.992C103.416 82.8204 107.27 74.9781 108.477 66.557C109.681 57.5066 107.933 48.3146 103.484 40.2988ZM105.457 72.4369C105.085 72.278 104.685 72.1845 104.313 72.0536C103.57 71.7919 102.827 71.5769 102.084 71.3338H101.979C102.227 70.5579 102.455 69.7634 102.655 68.9688L102.77 68.5294C103.525 68.8696 104.318 69.1237 105.133 69.2866C105.482 69.3596 105.835 69.4126 106.19 69.4455C105.993 70.4489 105.749 71.4429 105.457 72.4275V72.4369ZM104.113 76.2508C103.808 76.0826 103.484 75.961 103.16 75.8115C102.417 75.4562 101.664 75.1104 100.921 74.7552C100.841 74.7281 100.754 74.7281 100.674 74.7552L100.788 74.4934C101.131 73.6646 101.448 72.8264 101.741 71.9788C102.429 72.3252 103.135 72.6372 103.856 72.9136C104.264 73.088 104.685 73.2348 105.114 73.353C104.84 74.3065 104.504 75.2724 104.104 76.2508H104.113ZM102.312 79.99C102.007 79.8217 101.674 79.6908 101.36 79.5319C100.607 79.1487 99.8446 78.7841 99.0823 78.4008C99.0205 78.3696 98.9518 78.3535 98.8822 78.3541C99.4539 77.3508 99.978 76.3194 100.454 75.2599C100.485 75.301 100.524 75.3359 100.569 75.3628C101.25 75.8337 101.96 76.2644 102.693 76.6528C103.034 76.8362 103.383 77.0016 103.742 77.1482C103.303 78.1017 102.824 79.0521 102.303 79.9993L102.312 79.99ZM100.14 83.4674L100.073 83.5609C99.7472 83.2422 99.3861 82.9601 98.9966 82.7196C98.3554 82.2925 97.6798 81.9174 96.9766 81.5978C96.9295 81.5882 96.8808 81.5882 96.8337 81.5978C97.4435 80.7472 98.0247 79.8685 98.5583 78.9617C98.5914 79.0177 98.637 79.0656 98.6917 79.1019C99.3867 79.5675 100.105 79.9981 100.845 80.3919C101.14 80.5415 101.455 80.7378 101.798 80.8967C101.264 81.8066 100.708 82.6666 100.13 83.4767L100.14 83.4674ZM96.5479 86.1596C95.9285 85.5239 95.2902 84.9257 94.6423 84.29C95.2775 83.5671 95.8809 82.8224 96.4526 82.0559L96.5288 82.1306C97.1005 82.57 97.6817 82.972 98.2629 83.402C98.6484 83.7352 99.0524 84.0473 99.473 84.3368C98.806 85.2279 98.1009 86.0879 97.3577 86.9168C97.1005 86.6831 96.7956 86.4213 96.5383 86.1689L96.5479 86.1596ZM91.6981 87.5244C92.2952 88.1164 92.8796 88.7178 93.4512 89.3285C93.6704 89.5622 93.9086 89.8614 94.1754 90.1231C93.6037 90.6341 93.0161 91.1264 92.4127 91.6001C92.184 91.329 91.9268 91.0766 91.7076 90.8242L90.0592 88.9546C90.0361 88.9266 90.0072 88.9037 89.9743 88.8876C89.9414 88.8715 89.9054 88.8625 89.8687 88.8611C90.4658 88.3875 91.047 87.8952 91.6123 87.3842C91.6262 87.4389 91.6522 87.49 91.6885 87.5337L91.6981 87.5244ZM86.3433 95.5449C86.1242 95.0027 85.905 94.4605 85.6478 93.9371C85.4264 93.3484 85.1422 92.7844 84.7998 92.2544C85.5112 91.8681 86.2067 91.4599 86.8864 91.0299C87.1948 91.7604 87.588 92.4536 88.0584 93.0957C88.2775 93.4323 88.4776 93.8342 88.7348 94.1801C87.9408 94.6724 87.1405 95.1305 86.3338 95.5542L86.3433 95.5449ZM82.8941 97.2182C82.6274 96.6573 82.3637 96.0933 82.1033 95.5262C81.9074 94.9761 81.6685 94.4417 81.3887 93.9277C82.2399 93.5663 83.0815 93.1736 83.9136 92.7499C84.1012 93.3211 84.3537 93.8699 84.6664 94.3858C84.9527 94.9329 85.2708 95.4635 85.6192 95.9749C84.7235 96.3924 83.8152 96.8069 82.8941 97.2182ZM88.7825 92.7312C88.3794 92.0571 87.9 91.4299 87.3533 90.8616C87.8106 90.5625 88.2584 90.2633 88.6967 89.9268L89.5924 89.2538C89.5674 89.3169 89.5674 89.3869 89.5924 89.4501C90.0474 90.1929 90.5436 90.9106 91.0787 91.6001C91.2598 91.8338 91.4503 92.0862 91.6504 92.3199C90.9517 92.8434 90.2371 93.3419 89.5066 93.8155C89.2684 93.3575 89.0016 93.021 88.7825 92.6844V92.7312ZM80.455 93.049C78.6569 93.7912 76.8108 94.4157 74.9287 94.9186C73.1851 95.3953 71.3461 95.6103 69.6025 96.0777C70.9643 92.2849 72.1125 88.4215 73.0421 84.505C73.7091 81.9499 74.3221 79.3793 74.881 76.793C75.1859 75.397 75.4718 73.9949 75.7386 72.5864C75.8624 71.9695 76.0339 71.3245 76.1292 70.7169C76.6819 71.3806 77.3298 71.9882 77.8919 72.5864C78.9114 73.6334 79.95 74.6897 80.9885 75.718L83.9518 78.7561C84.9046 79.7376 85.8574 81.1678 87.1151 81.7848C87.2255 81.8453 87.3531 81.8688 87.4784 81.8517C87.6038 81.8346 87.72 81.7779 87.8094 81.6901C87.8989 81.6024 87.9567 81.4883 87.9741 81.3654C87.9916 81.2424 87.9676 81.1173 87.9059 81.0089C87.3533 79.8124 86.0003 78.8589 85.0475 77.9334L81.9413 74.8393C80.9314 73.8484 79.9309 72.8482 78.9019 71.876C78.1396 71.1562 77.3965 70.3149 76.5485 69.6418C77.3202 69.5577 78.092 69.3521 78.8257 69.2118C80.1977 68.9563 81.5634 68.6884 82.9227 68.4079C85.6541 67.8408 88.3696 67.2176 91.0692 66.5383C94.8804 65.6035 98.7774 64.6688 102.503 63.304C102.103 64.7809 101.922 66.342 101.55 67.819C101.121 69.4019 100.609 70.9619 100.016 72.493C98.8342 75.5117 97.2927 78.3828 95.4235 81.0463C91.6846 86.3381 86.4949 90.4833 80.455 93.0023V93.049ZM77.5965 97.2182C77.7411 97.7962 77.9322 98.3619 78.1682 98.9101C77.2154 99.2093 76.2626 99.4897 75.3098 99.7515C75.2437 99.1232 75.1419 98.499 75.0049 97.8819C74.9291 97.3001 74.7951 96.7271 74.6047 96.1712C75.4877 95.9718 76.3579 95.7412 77.2154 95.4795C77.2679 96.0699 77.3861 96.653 77.568 97.2182H77.5965ZM68.1066 79.4571C68.1722 77.3806 68.1181 75.302 67.9446 73.2314C70.3057 73.0828 72.5696 72.2536 74.4523 70.8477L74.6905 70.6608C74.5761 71.2403 74.5095 71.8293 74.3951 72.3808C74.1283 73.7082 73.8457 75.0356 73.5471 76.363C72.9691 78.9368 72.3339 81.5012 71.6415 84.0563C70.9491 86.6114 70.2345 89.0793 69.4977 91.4599C69.0308 92.9742 68.5449 94.4886 68.1066 96.0123C68.1066 94.9716 68.1066 93.9277 68.1066 92.8807C68.1066 90.6435 68.1066 88.4062 68.1066 86.1689C68.1066 83.9628 68.1161 81.7287 68.1066 79.4571ZM66.9346 79.4571C66.9346 81.6913 66.9346 83.9348 66.9346 86.1689C66.9346 88.4031 66.9346 90.6466 66.9346 92.8807C66.9346 93.9776 66.9346 95.0713 66.9346 96.1619C66.5059 94.6382 65.9818 93.1331 65.5531 91.6188C64.7654 89.1198 64.0222 86.5709 63.3235 83.9722C62.6248 81.3735 61.9896 78.8526 61.4179 76.4097C61.113 75.0823 60.8272 73.7487 60.5604 72.4088C60.4841 72.0162 60.4174 71.5956 60.3507 71.1749C62.3266 72.5398 64.6802 73.2802 67.0966 73.2969C66.9274 75.3458 66.8733 77.4024 66.9346 79.4571ZM63.7523 101.051C62.7042 100.982 61.6593 100.867 60.6175 100.705C60.789 99.7702 60.9987 98.8354 61.2083 97.9006C61.3713 97.3935 61.508 96.8788 61.618 96.3582C62.5009 96.4953 63.3838 96.6043 64.2668 96.6853C64.0537 97.2375 63.9222 97.8167 63.8761 98.4053C63.7565 99.282 63.7151 100.167 63.7523 101.051ZM55.5677 93.9277C51.9954 92.9782 48.6523 91.3383 45.7347 89.1042C40.6121 84.8833 36.7308 79.3973 34.4916 73.2127C33.8532 71.5196 33.3312 69.7863 32.929 68.0247C32.5669 66.4636 32.3954 64.837 32.0238 63.2666C35.8963 64.5873 39.8368 65.7075 43.8291 66.6225C46.4779 67.2893 49.1362 67.9125 51.8041 68.4921C53.2396 68.7912 54.6816 69.0747 56.1298 69.3427C56.7587 69.4642 57.4161 69.6325 58.0354 69.726C57.2827 70.3429 56.6157 71.0908 55.9393 71.7451C54.8816 72.764 53.8526 73.811 52.8236 74.858L49.8794 77.84C48.9266 78.7747 47.5069 79.8311 46.9352 81.065C46.8735 81.1734 46.8496 81.2985 46.867 81.4215C46.8844 81.5444 46.9422 81.6584 47.0317 81.7462C47.1212 81.834 47.2374 81.8907 47.3627 81.9078C47.488 81.9249 47.6156 81.9014 47.7261 81.8409C48.9075 81.2519 49.8127 79.9152 50.7179 78.9617L53.7669 75.718C54.7197 74.7084 55.6725 73.6988 56.6253 72.6612C57.3113 71.904 58.1212 71.1469 58.7596 70.3055C58.8548 70.9786 59.0359 71.6516 59.1597 72.306C59.4202 73.6521 59.6933 74.992 59.9792 76.3256C60.5572 79.0053 61.1924 81.6695 61.8848 84.3181C62.8046 88.1739 63.9272 91.9805 65.2482 95.7225C61.9897 95.302 58.7578 94.7028 55.5677 93.9277ZM51.947 98.1343C50.9815 97.7105 50.0287 97.2493 49.0886 96.7508C49.6146 96.0808 50.0861 95.3713 50.4987 94.6288C50.7148 94.2565 50.9027 93.869 51.0609 93.4697C51.7945 93.7875 52.5377 94.0866 53.3095 94.3577L53.6716 94.4792C53.4334 94.9092 53.2714 95.414 53.0713 95.816L51.947 98.0501C51.9411 98.0842 51.9411 98.1189 51.947 98.153V98.1343ZM40.7515 90.6559C41.066 90.3662 41.3327 90.0203 41.59 89.7212C42.0664 89.2101 42.5523 88.7085 43.0478 88.2161C43.5941 88.7147 44.1562 89.1914 44.7343 89.6464L43.4003 91.1514C43.1145 91.4786 42.7524 91.8151 42.4475 92.189C41.8758 91.6842 41.3073 91.1638 40.742 90.6279L40.7515 90.6559ZM44.0387 91.8338C44.477 91.2729 44.8867 90.6933 45.2678 90.0951C45.9983 90.6497 46.7574 91.167 47.545 91.6468C47.1185 92.1644 46.73 92.711 46.3826 93.2827C46.0709 93.6917 45.7906 94.1229 45.5441 94.5727C44.7438 94.0181 43.9688 93.4354 43.2193 92.8247C43.5173 92.505 43.7912 92.1644 44.0387 91.8057V91.8338ZM37.5596 87.2346C36.8736 86.412 36.2193 85.5426 35.5968 84.6265C35.9113 84.3928 36.2066 84.1217 36.4925 83.8974C37.0451 83.4674 37.5977 83.0467 38.1599 82.6354C38.7189 83.4269 39.3033 84.1903 39.9131 84.9257C39.3414 85.4585 38.7792 85.9913 38.2266 86.5522C38.017 86.7579 37.7788 86.9355 37.5596 87.2066V87.2346ZM31.3854 77.1576C31.802 77.0215 32.2066 76.8527 32.5955 76.6528C33.1574 76.3684 33.7044 76.0564 34.2343 75.718C34.679 76.7338 35.1649 77.7278 35.6921 78.7L33.9294 79.5787C33.5674 79.7656 33.1672 79.9245 32.8147 80.1395C32.3001 79.1549 31.8237 78.1609 31.3854 77.1576ZM29.9467 73.4184C30.4377 73.3093 30.9164 73.1527 31.3759 72.951C31.9 72.7547 32.4145 72.5304 32.9099 72.2873L32.9957 72.549C33.2752 73.3779 33.5928 74.1974 33.9485 75.0075L32.1382 75.8582C31.7856 76.0265 31.395 76.176 31.0615 76.3817C30.6486 75.3783 30.277 74.375 29.9467 73.3717V73.4184ZM28.87 69.4923C29.2967 69.4733 29.7208 69.417 30.1373 69.324C30.7305 69.211 31.3113 69.0419 31.8714 68.8192C32.1096 69.754 32.3859 70.6888 32.6717 71.5395C32.1096 71.7171 31.5474 71.8947 30.9853 72.091C30.5402 72.2149 30.1041 72.368 29.6799 72.549C29.3687 71.5145 29.0987 70.48 28.87 69.4455V69.4923ZM28.1935 65.5755C28.6437 65.6139 29.0964 65.6139 29.5465 65.5755C30.1064 65.5336 30.6632 65.4587 31.2139 65.3512C31.3131 66.2695 31.469 67.181 31.6808 68.0807C31.1377 68.2303 30.5851 68.3612 30.0229 68.464C29.4608 68.5668 29.1178 68.5481 28.6795 68.6323C28.4826 67.5791 28.3206 66.5446 28.1935 65.5288V65.5755ZM28.5842 53.5634C29.0606 53.6756 29.537 53.6663 30.061 53.7598C30.5851 53.8532 31.0901 53.9748 31.5951 54.115C31.3974 55.0405 31.2574 55.9771 31.1758 56.9193C30.1984 56.5966 29.158 56.5006 28.1364 56.6389C28.2253 55.5919 28.3746 54.5668 28.5842 53.5634ZM29.537 49.5438C29.9976 49.7674 30.4795 49.9459 30.9757 50.0767C31.4902 50.2543 32.0048 50.4225 32.5193 50.5815C32.2239 51.4695 31.9571 52.3763 31.7285 53.3017C31.2102 53.1014 30.6744 52.9481 30.1277 52.8437C29.6655 52.7376 29.1923 52.6843 28.7176 52.6847C28.9526 51.6253 29.2257 50.5783 29.537 49.5438ZM30.4898 46.6553C30.6105 46.3437 30.7375 46.0321 30.8709 45.7206C31.2528 45.9477 31.6509 46.1476 32.0619 46.3188L33.7865 47.1321L33.596 47.5714C33.3006 48.2912 33.0052 49.0484 32.7384 49.8243C32.2716 49.6093 31.7856 49.3943 31.3283 49.2167C30.8281 48.988 30.2996 48.8245 29.7561 48.7306C30.0166 48.0264 30.2802 47.3315 30.547 46.646L30.4898 46.6553ZM32.6813 41.9814C33.067 42.2045 33.4646 42.4073 33.8723 42.589L35.6064 43.4584C35.0633 44.3931 34.5488 45.4027 34.1009 46.4123C33.596 46.0945 33.0814 45.7953 32.5383 45.5336C32.1191 45.2948 31.6751 45.1006 31.2139 44.954C31.6967 43.932 32.2017 42.938 32.7289 41.972L32.6813 41.9814ZM38.6935 35.9613C39.1222 36.4007 39.5605 36.8213 40.0083 37.242C39.3604 37.9805 38.7506 38.747 38.1599 39.5416C37.5787 39.1116 36.9975 38.6816 36.4353 38.2329C36.1399 37.9992 35.8446 37.7281 35.4825 37.4944C36.1495 36.5721 36.8545 35.6778 37.5977 34.8115C37.9361 35.2339 38.323 35.6165 38.7506 35.952L38.6935 35.9613ZM46.3159 33.0261C49.1418 30.9208 52.299 29.2821 55.6629 28.1745C57.5552 27.4954 59.5072 26.9884 61.4941 26.6602C62.7241 26.5144 63.9617 26.4395 65.2005 26.4358C63.8545 30.2256 62.7127 34.0823 61.78 37.9898C61.1193 40.5823 60.5032 43.1873 59.9315 45.8047C59.6266 47.2131 59.3376 48.6278 59.0645 50.0486C58.9406 50.6843 58.7691 51.3386 58.6643 52.0023C58.0831 51.2639 57.378 50.5815 56.7587 49.8991C55.8059 48.7773 54.7578 47.6836 53.7478 46.5899L50.8894 43.4677C49.9366 42.4675 48.9838 41.0186 47.7547 40.4016C47.6442 40.3411 47.5166 40.3176 47.3913 40.3346C47.266 40.3517 47.1498 40.4085 47.0603 40.4962C46.9708 40.584 46.913 40.698 46.8956 40.821C46.8782 40.9439 46.9021 41.0691 46.9638 41.1775C47.5165 42.374 48.8694 43.3368 49.7555 44.281L52.8522 47.506C53.805 48.5343 54.8054 49.5625 55.8154 50.5534C56.4824 51.2078 57.1303 51.9463 57.8639 52.5819C57.2351 52.6847 56.6157 52.8437 56.0155 52.9465C54.6434 53.202 53.2778 53.47 51.9184 53.7504C49.187 54.3175 46.4715 54.9407 43.7719 55.62C39.7615 56.5371 35.8048 57.6667 31.919 59.0039C32.1382 57.6672 32.2716 56.3211 32.5574 54.9937C32.9247 53.215 33.415 51.4629 34.0247 49.7495C35.2304 46.3959 36.9527 43.2434 39.1318 40.4016C39.8082 39.5229 40.5229 38.6722 41.2565 37.8403C41.2905 37.8144 41.3196 37.7827 41.3423 37.7468C42.8657 36.0298 44.5395 34.4471 46.3445 33.0167L46.3159 33.0261ZM48.5931 25.6506C48.898 26.4078 49.1839 27.1556 49.5459 27.8847C49.7232 28.2972 49.9236 28.6998 50.1462 29.0906C49.4348 29.4583 48.7424 29.8478 48.0691 30.2591C47.8309 29.8198 47.5355 29.4085 47.2687 28.9878C46.9647 28.3215 46.5083 27.7329 45.9348 27.2678C46.7987 26.6446 47.688 26.0868 48.6026 25.5945L48.5931 25.6506ZM54.0241 25.9497C53.612 25.1577 53.1136 24.4117 52.5377 23.7249C53.6919 23.2789 54.8724 22.9012 56.0726 22.5938C56.2002 23.4385 56.3913 24.2727 56.6443 25.0897C56.7587 25.4917 56.8444 25.9404 56.9969 26.361L56.7396 26.4358C56.0345 26.6602 55.3199 26.8939 54.6053 27.1556C54.4322 26.7412 54.2317 26.3384 54.0051 25.9497H54.0241ZM61.1416 23.7343C60.9891 23.0612 60.8367 22.3975 60.6938 21.7245C61.7133 21.5656 62.7328 21.416 63.7618 21.3132C63.7209 22.1084 63.7464 22.9057 63.838 23.6969C63.8865 24.1541 63.9693 24.6071 64.0858 25.0523C63.3902 25.0523 62.6947 25.1832 62.0563 25.2673L61.4751 25.3515C61.4107 24.8056 61.2926 24.2672 61.1225 23.7436L61.1416 23.7343ZM66.8584 42.8788C66.7949 44.9837 66.8553 47.0905 67.0395 49.1886C65.1432 49.4443 63.3078 50.0266 61.618 50.9086C61.3798 51.0302 60.2269 51.5723 60.1792 51.8434C60.2841 51.2919 60.3507 50.7404 60.4556 50.2169C60.7287 48.877 61.0145 47.5372 61.3131 46.1973C61.9038 43.5799 62.539 40.978 63.2187 38.3918C63.8984 35.8055 64.6257 33.3128 65.4006 30.9135C65.8675 29.3991 66.3534 27.8847 66.7917 26.361C66.7917 27.3893 66.7917 28.4176 66.7917 29.4458C66.7917 31.6956 66.7917 33.9453 66.7917 36.195C66.8203 38.3824 66.8108 40.6353 66.8203 42.8881L66.8584 42.8788ZM31.8237 61.6961H35.0442H41.9425H48.8408C50.9606 61.761 53.0824 61.7079 55.1961 61.5372C55.2511 63.8744 55.9922 66.1464 57.3304 68.0807C56.9588 68.0247 56.5872 67.9686 56.2346 67.9031C54.8689 67.6352 53.5033 67.3547 52.1376 67.0618C49.4697 66.4823 46.8177 65.8591 44.1816 65.1922C41.5455 64.5254 39.0047 63.8119 36.5592 63.0516C34.9585 62.6309 33.3959 62.1355 31.8237 61.6961ZM55.2628 60.7613C53.1429 60.5875 51.015 60.5282 48.8885 60.5837H41.9902H35.0919H31.6618C33.2148 60.1631 34.7488 59.6489 36.3019 59.2283C38.8999 58.4555 41.5106 57.7264 44.134 57.0409C46.7574 56.3554 49.3268 55.7322 51.8422 55.1713C53.1952 54.8722 54.5545 54.5917 55.9202 54.33C56.5205 54.2085 57.1684 54.143 57.8258 54.0215C57.0111 55.0119 56.3674 56.1266 55.9202 57.3213C55.5296 58.43 55.308 59.5891 55.2628 60.7613ZM34.9585 38.3264C35.2824 38.6068 35.654 38.8498 35.978 39.0742C36.5387 39.4825 37.1242 39.8571 37.7311 40.1959C37.1531 41.0123 36.6068 41.8443 36.0923 42.6918C35.5492 42.346 35.0061 42.0094 34.4344 41.7103C34.0453 41.4897 33.641 41.296 33.2244 41.1307C33.7643 40.171 34.3423 39.2362 34.9585 38.3264ZM29.2416 57.4989C29.8705 57.4989 30.4993 57.5644 31.1472 57.6111C31.1176 58.1716 31.1176 58.7332 31.1472 59.2937C30.0515 59.7237 28.9748 60.2285 27.9363 60.7146C27.9877 60.1268 27.9877 59.5357 27.9363 58.9478C27.9363 58.4431 27.9935 57.9476 28.0316 57.4428C28.4199 57.4964 28.8114 57.5246 29.2035 57.527L29.2416 57.4989ZM27.8982 61.5092C28.9463 62.0327 30.042 62.5094 31.1472 62.9394C31.1186 63.4438 31.1186 63.9494 31.1472 64.4538C30.566 64.5005 29.9848 64.5379 29.4036 64.5659C28.9748 64.5659 28.527 64.5659 28.0887 64.5659C27.9871 63.5626 27.9236 62.5437 27.8982 61.5092ZM34.444 80.3919C35.0156 80.0928 35.5683 79.7563 36.1114 79.4011C36.5052 80.0928 36.9181 80.7721 37.35 81.4389L37.6835 81.9343C37.0941 82.2597 36.5246 82.6187 35.978 83.0094C35.6731 83.2337 35.311 83.4674 35.0252 83.7385C34.4281 82.8411 33.8659 81.9219 33.3387 80.9809C33.7181 80.8051 34.0871 80.6085 34.444 80.3919ZM62.4565 70.7075C61.6044 70.2708 60.816 69.7237 60.1125 69.081L60.0268 68.9968C58.7327 67.7923 57.7637 66.2915 57.2066 64.6289C56.6495 62.9664 56.5218 61.1942 56.8349 59.4713C57.2758 57.0706 58.5358 54.8883 60.4079 53.283C61.911 52.0308 63.7162 51.1774 65.6511 50.8043C67.586 50.4311 69.5861 50.5508 71.4605 51.1517C73.582 51.8767 75.3895 53.2874 76.5866 55.1526C79.1306 59.1909 78.1206 65.4353 74.7762 68.7444C73.2086 70.3242 71.1649 71.3679 68.9467 71.7213C66.7284 72.0748 64.4531 71.7194 62.4565 70.7075ZM67.9827 42.8881C67.9827 40.6353 67.9827 38.3824 67.9827 36.1389C67.9827 33.8954 67.9827 31.6333 67.9827 29.3898C67.9827 28.3241 67.9827 27.2615 67.9827 26.2021C68.3924 27.6323 68.8593 29.0065 69.3071 30.4741C70.0757 32.9295 70.8062 35.3973 71.4986 37.8777C72.191 40.358 72.8135 42.7915 73.3661 45.1784C73.6646 46.4808 73.9473 47.7833 74.2141 49.0858C74.3379 49.6841 74.4142 50.3384 74.538 50.9554C74.092 50.6622 73.6237 50.4028 73.1374 50.1795C71.4673 49.4329 69.646 49.0685 67.8112 49.1138C67.9899 47.0435 68.0503 44.9651 67.9923 42.8881H67.9827ZM71.5462 21.5001C72.5562 21.631 73.5598 21.8024 74.5571 22.0143C74.4332 22.6032 74.2998 23.1827 74.1664 23.7717C73.9773 24.3018 73.8464 24.8502 73.7758 25.4075H73.69C72.9087 25.286 72.0417 25.1552 71.1651 25.0897C71.2995 24.6335 71.3982 24.1678 71.4605 23.6969C71.5468 22.9679 71.5754 22.2334 71.5462 21.5001ZM82.2939 24.3045C81.9133 24.816 81.5756 25.3568 81.2839 25.9217C81.0419 26.3408 80.8348 26.7785 80.6646 27.2304L79.9119 26.95C79.3783 26.7568 78.8384 26.5729 78.2921 26.3984C78.4541 25.9684 78.5398 25.4636 78.6637 25.0617C78.8447 24.426 79.0162 23.8091 79.1401 23.1921C80.2072 23.5473 81.2585 23.9181 82.2939 24.3045ZM85.7526 25.8749C85.3982 26.3924 85.0799 26.9327 84.7998 27.4921C84.559 27.8963 84.358 28.3219 84.1995 28.7634C83.361 28.3521 82.494 27.9782 81.6269 27.6323C81.8651 27.2023 82.0176 26.6976 82.2177 26.3049L83.0561 24.6317C83.9772 25.0367 84.876 25.4512 85.7526 25.8749ZM88.9254 27.6043C88.5634 28.0378 88.2443 28.5042 87.9726 28.9971C87.6772 29.4552 87.3628 29.9319 87.1055 30.3993C86.4291 29.9787 85.7335 29.5861 85.0189 29.2121C85.2995 28.7898 85.5449 28.3459 85.7526 27.8847C86.0193 27.3426 86.248 26.7817 86.4767 26.2208C87.3279 26.657 88.1568 27.1182 88.9635 27.6043H88.9254ZM94.4803 31.68C94.0925 32.0165 93.7354 32.3855 93.4131 32.783C92.9558 33.2754 92.4889 33.7583 92.0125 34.232C91.4789 33.7272 90.9263 33.2317 90.3546 32.7643L91.6695 31.2874C92.0118 30.931 92.33 30.5532 92.6223 30.1563C93.2893 30.6174 93.9213 31.1253 94.5184 31.68H94.4803ZM96.9576 34.1291C96.4444 34.4988 95.9886 34.9396 95.6046 35.4379C95.2044 35.8679 94.8423 36.3072 94.4898 36.7653C93.8546 36.0735 93.2194 35.4036 92.5842 34.7555C93.0892 34.3161 93.5942 33.8768 94.0801 33.4187C94.4855 33.0881 94.8529 32.7151 95.1758 32.3063C95.8047 32.8859 96.4113 33.4935 96.9957 34.1291H96.9576ZM91.0216 30.633C90.5928 31.1846 90.1926 31.7454 89.821 32.3343L89.297 31.9137C88.8397 31.5273 88.3474 31.1721 87.8202 30.848C88.1727 30.4087 88.4681 29.9132 88.773 29.4552C89.1178 29.0145 89.4178 28.5418 89.6686 28.0437C90.4435 28.5297 91.1994 29.0439 91.9363 29.5861C91.6147 29.9104 91.3215 30.2606 91.0597 30.633H91.0216ZM77.5775 24.8093C77.4365 25.2567 77.3251 25.7126 77.244 26.1741C76.396 25.9404 75.5385 25.7347 74.6714 25.5758C74.9005 25.0325 75.0482 24.4594 75.1097 23.8745C75.2158 23.3217 75.2858 22.7628 75.3193 22.2012C76.3039 22.4256 77.2853 22.6873 78.2635 22.9864C77.9755 23.571 77.7458 24.1814 77.5775 24.8093ZM72.5848 26.5199C74.3432 26.7411 76.0779 27.1165 77.7681 27.6417C81.217 28.6308 84.489 30.1381 87.4676 32.11C93.2764 36.2173 97.8006 41.8345 100.531 48.3286C101.291 50.1426 101.884 52.0196 102.303 53.9374C102.655 55.5919 102.779 57.2559 102.989 58.9198C99.2406 57.612 95.4239 56.5012 91.5552 55.5919C89.0143 54.9688 86.4735 54.3736 83.9327 53.8065C82.5353 53.5136 81.1378 53.2363 79.7404 52.9745C78.8047 52.7322 77.8475 52.5788 76.8819 52.5165C77.7248 51.8235 78.5176 51.0739 79.2544 50.273C80.2644 49.2821 81.2363 48.2632 82.2177 47.2443L85.0094 44.3371C85.9622 43.4023 87.3342 42.3647 87.8678 41.1494C87.9295 41.041 87.9534 40.9159 87.936 40.7929C87.9186 40.67 87.8608 40.556 87.7713 40.4682C87.6819 40.3804 87.5656 40.3237 87.4403 40.3066C87.315 40.2895 87.1874 40.313 87.077 40.3735C85.905 40.9625 85.0284 42.2431 84.1423 43.1779L81.2839 46.2908C80.3311 47.2817 79.4545 48.2632 78.5684 49.2728C77.6662 50.1648 76.8438 51.1312 76.1102 52.1613C76.0834 51.1311 75.9299 50.1079 75.6528 49.1138C75.3987 47.7989 75.1288 46.4871 74.8429 45.1784C74.2776 42.5921 73.6424 40.0214 72.9373 37.4663C72.0219 33.7106 70.9088 30.0038 69.6025 26.361C70.6029 26.4358 71.6034 26.4078 72.5848 26.5199ZM101.95 41.1307C101.569 41.3015 101.197 41.4918 100.835 41.701C100.207 42.0281 99.6064 42.402 99.0156 42.7947C98.5011 41.9346 97.9485 41.0965 97.3577 40.2801C98.019 39.9226 98.6555 39.5229 99.2634 39.0835C99.5683 38.8685 99.9208 38.6348 100.216 38.3731C100.858 39.2767 101.436 40.1959 101.95 41.1307ZM105.199 48.7586C104.753 48.8756 104.317 49.0256 103.894 49.2073C103.341 49.413 102.817 49.656 102.284 49.9084L102.036 49.198C101.798 48.5249 101.531 47.8612 101.245 47.2069L103.151 46.2721C103.484 46.1132 103.837 45.9729 104.161 45.786C104.555 46.7831 104.907 47.7771 105.218 48.768L105.199 48.7586ZM106.209 52.666C105.851 52.6984 105.494 52.7515 105.142 52.825C104.505 52.9469 103.883 53.1317 103.284 53.3765C103.075 52.4417 102.817 51.5069 102.531 50.6282C103.122 50.4412 103.713 50.2543 104.294 50.058C104.675 49.9271 105.095 49.8243 105.476 49.656C105.768 50.6594 106.016 51.6658 106.219 52.6754L106.209 52.666ZM98.5011 62.9487C95.9031 63.7215 93.2924 64.4506 90.669 65.1362C88.0457 65.8217 85.4762 66.4449 82.9608 67.0057C81.6079 67.3049 80.2485 67.5853 78.8828 67.847C78.3016 67.9592 77.6632 68.034 77.0439 68.1462C78.4063 66.1287 79.2168 63.8013 79.3973 61.3876C81.6135 61.6012 83.8414 61.673 86.067 61.6026H103.094C101.588 62.0233 100.045 62.5 98.5106 62.9581L98.5011 62.9487ZM105.561 57.5737C106.017 57.5914 106.474 57.5633 106.924 57.4896C107.019 58.5989 107.07 59.7081 107.076 60.8174C107.046 60.7485 106.992 60.6922 106.924 60.6585C105.885 60.135 104.818 59.6583 103.722 59.2283C103.785 58.7133 103.817 58.1951 103.818 57.6765C104.399 57.6391 104.98 57.6017 105.571 57.583L105.561 57.5737ZM78.6351 55.9659C78.3611 55.2741 78.013 54.6129 77.5965 53.9934C78.2826 54.143 78.9972 54.2178 79.6451 54.3393C80.9726 54.6011 82.2971 54.8784 83.6183 55.1713C86.1591 55.7322 88.6809 56.3554 91.1836 57.0409C93.6863 57.7264 96.1127 58.4212 98.463 59.1255C99.9684 59.5835 101.464 60.0602 102.979 60.4809H86.1051C83.8797 60.4075 81.6518 60.4762 79.4355 60.6866C79.486 59.0768 79.214 57.4729 78.6351 55.9659ZM103.684 62.8646C104.79 62.4346 105.876 61.9298 106.924 61.4344C106.993 61.4014 107.047 61.3449 107.076 61.2755C107.076 62.391 107.026 63.5034 106.924 64.6127C106.478 64.5302 106.025 64.4926 105.571 64.5005C104.923 64.5005 104.266 64.4351 103.665 64.379C103.71 63.8754 103.719 63.3695 103.694 62.8646H103.684ZM106.848 56.695C105.829 56.494 104.775 56.5585 103.789 56.882C103.742 55.9657 103.63 55.0537 103.456 54.1524C104.048 53.9796 104.649 53.8361 105.257 53.7224C105.619 53.6569 106.019 53.6476 106.4 53.5915C106.609 54.6322 106.759 55.6667 106.848 56.695ZM105.257 68.3892C104.516 68.2517 103.784 68.0707 103.065 67.847C103.018 67.8366 102.969 67.8366 102.922 67.847C103.141 66.9777 103.36 66.0709 103.503 65.1642C104.572 65.5399 105.723 65.6302 106.838 65.4259C106.724 66.4667 106.571 67.5012 106.381 68.5294C106.019 68.4734 105.628 68.464 105.266 68.3892H105.257ZM103.827 45.0195C103.437 45.1713 103.059 45.3494 102.693 45.5523C102.112 45.8386 101.546 46.1537 100.997 46.4964C100.54 45.4869 100.045 44.496 99.4825 43.5238L101.388 42.589C101.741 42.4114 102.131 42.2618 102.474 42.0562C102.957 43.0097 103.418 43.985 103.856 44.9821L103.827 45.0195ZM99.6826 37.5411C99.3777 37.7748 99.0823 38.0366 98.806 38.2609C98.1867 38.747 97.5388 39.1957 96.9004 39.7005L96.6717 39.3827C96.1572 38.6785 95.6236 38.0148 95.071 37.3916C95.5665 36.9242 96.0238 36.4568 96.5479 35.9613C96.938 35.6193 97.2894 35.2369 97.5959 34.8209C98.0851 35.388 98.5583 35.9769 99.0156 36.5876C99.2443 36.8774 99.4634 37.1859 99.6826 37.4944V37.5411ZM70.7744 21.3786C70.6696 22.1825 70.5362 22.9958 70.3933 23.7997C70.3171 24.211 70.2123 24.613 70.1742 25.0243C69.814 25.0249 69.4542 25.0499 69.0975 25.0991C68.7069 24.1643 68.2781 23.2295 67.8112 22.3695C67.7836 22.304 67.7325 22.2507 67.6675 22.2197C67.6025 22.1887 67.5283 22.1821 67.4587 22.2012H67.3634C67.2965 22.1851 67.2259 22.1933 67.1646 22.2242C67.1033 22.2551 67.0555 22.3067 67.0299 22.3695C66.5726 23.2482 66.1533 24.1549 65.7627 25.0804C65.5435 25.0804 65.3244 25.0804 65.1053 25.0804C65.1053 24.6691 64.9528 24.2578 64.8766 23.8371C64.7337 22.9958 64.5907 22.1451 64.4764 21.2945C65.0195 21.2945 65.5721 21.2197 66.1248 21.2103C67.6768 21.1637 69.2302 21.2199 70.7744 21.3786ZM59.941 21.846C59.969 22.5142 60.0454 23.1796 60.1697 23.8371C60.2303 24.4071 60.3681 24.9667 60.5794 25.501C59.7219 25.6568 58.8707 25.85 58.0259 26.0806C57.9444 25.6547 57.8394 25.2334 57.7115 24.8186C57.506 23.9882 57.1854 23.1893 56.7587 22.4443C57.4161 22.2947 58.0831 22.1545 58.7596 22.0516L59.941 21.846ZM51.8136 24.0147L51.947 23.9586C51.94 23.9957 51.94 24.0337 51.947 24.0708L53.0713 26.3049C53.2523 26.6695 53.4048 27.1276 53.6144 27.5295C52.7474 27.866 51.8898 28.2306 51.0514 28.6326C50.8946 28.2402 50.71 27.8591 50.4987 27.4921C50.1022 26.7676 49.6499 26.0738 49.1458 25.4169C49.1202 25.3827 49.0878 25.3541 49.0505 25.3328C49.746 24.9588 50.4511 24.613 51.1752 24.2858L51.8136 24.0147ZM45.4965 27.5576C45.6896 28.2477 46.038 28.8866 46.516 29.4271C46.8018 29.8478 47.0686 30.2965 47.3831 30.7078L46.6685 31.2032C46.2206 31.5211 45.7919 31.8576 45.3536 32.1941C45.001 31.6613 44.639 31.1378 44.2388 30.633C43.9296 30.1713 43.5541 29.7557 43.124 29.3991C43.8863 28.751 44.6771 28.1371 45.4965 27.5576ZM42.4761 29.9132C42.7913 30.4016 43.1621 30.8532 43.5814 31.2593L44.7819 32.6335C44.2102 33.1009 43.6512 33.587 43.105 34.0918C42.6794 33.6617 42.257 33.2255 41.8377 32.783C41.4935 32.3512 41.1003 31.9592 40.6658 31.6146C41.2565 31.035 41.86 30.4679 42.4761 29.9132ZM40.0179 32.2315C40.3456 32.6736 40.7299 33.0726 41.1612 33.4187C41.5995 33.83 42.0569 34.232 42.5047 34.6246C41.8695 35.2478 41.2343 35.9021 40.5991 36.5876C40.2847 36.195 39.9702 35.8118 39.6463 35.4379C39.2588 34.9335 38.7963 34.4892 38.2742 34.1198C38.8523 33.4779 39.4335 32.8485 40.0179 32.2315ZM38.2552 88.0198C38.5791 87.7207 38.8745 87.3468 39.1318 87.085C39.5875 86.5932 40.0169 86.0783 40.418 85.5426C41.0532 86.3029 41.7424 87.0289 42.4856 87.7207C41.9616 88.1787 41.4375 88.6555 40.9326 89.1042C40.6191 89.3722 40.3202 89.6562 40.0369 89.9548C39.4208 89.3192 38.8269 88.6742 38.2552 88.0198ZM46.2492 95.0308C46.5771 94.6087 46.8702 94.1617 47.1258 93.694C47.5072 93.1486 47.8479 92.5769 48.1453 91.9833C48.7805 92.3573 49.4379 92.7062 50.1176 93.0303C49.9055 93.4189 49.7147 93.8183 49.5459 94.2268C49.1934 94.956 48.9075 95.7038 48.5931 96.4516C47.7864 96.0029 47.0051 95.5293 46.2492 95.0308ZM52.5282 98.3867C53.1001 97.7023 53.5952 96.9595 54.0051 96.1712C54.2647 95.731 54.4816 95.2678 54.653 94.7877C55.4787 95.0432 56.314 95.2769 57.1589 95.4888C56.8695 96.0843 56.6551 96.7121 56.5205 97.3584C56.2823 98.0969 56.0631 98.8354 55.9011 99.5925C54.9547 99.2996 54.0209 98.9725 53.0999 98.611L52.5282 98.3867ZM56.7777 99.8636C57.0881 99.2059 57.3431 98.5244 57.54 97.8258C57.8181 97.1437 57.9729 96.4193 57.9973 95.6851C58.8548 95.8845 59.7187 96.059 60.589 96.2086C60.4323 96.7377 60.3207 97.2786 60.2555 97.8258C60.0799 98.7519 59.9716 99.689 59.9315 100.63C58.8644 100.406 57.8131 100.15 56.7777 99.8636ZM64.4669 101.098C64.5812 100.163 64.7337 99.228 64.8861 98.3493C65.0141 97.8406 65.0907 97.3209 65.1148 96.7975H65.6674C66.0962 97.8538 66.563 98.8914 67.0871 99.8917C67.1147 99.9572 67.1658 100.01 67.2308 100.041C67.2958 100.072 67.3701 100.079 67.4396 100.06H67.5349C67.6018 100.074 67.6715 100.065 67.7324 100.034C67.7932 100.004 67.8413 99.9533 67.8684 99.8917C68.3829 98.9569 68.8212 97.9099 69.2595 96.8723C69.5549 96.8723 69.8598 96.8723 70.1551 96.8723C70.1966 97.3605 70.2762 97.8449 70.3933 98.3212C70.5267 99.1064 70.6601 99.901 70.7649 100.696C69.347 100.929 67.9144 101.067 66.4773 101.107C65.8103 101.126 65.1338 101.116 64.4669 101.088V101.098ZM71.5462 100.574C71.5607 99.8585 71.5193 99.1428 71.4224 98.4334C71.3734 97.8791 71.255 97.3328 71.0698 96.8069C71.9178 96.6947 72.7658 96.5264 73.5852 96.3395C73.6988 96.8752 73.8484 97.4029 74.033 97.9193C74.195 98.583 74.3665 99.256 74.519 99.9291C73.5281 100.163 72.5371 100.387 71.5462 100.565V100.574ZM79.0829 98.5643C78.9591 97.9473 78.7971 97.3303 78.616 96.6947C78.5071 96.1488 78.3476 95.6137 78.1396 95.0962C78.6446 94.9279 79.1401 94.7597 79.6451 94.5727L80.5502 94.2175C80.7241 94.8174 80.9704 95.3949 81.2839 95.9375C81.5336 96.4612 81.8201 96.9672 82.1414 97.4519L81.0076 97.8725L79.0829 98.5643ZM94.909 89.4594C94.6422 89.179 94.3373 88.9266 94.0991 88.7022C93.4798 88.132 92.851 87.5711 92.1935 87.029L92.0983 86.9355C92.8129 86.2624 93.4989 85.5707 94.1563 84.8509C94.6161 85.4797 95.1124 86.0821 95.6427 86.655C95.9386 87.0254 96.2568 87.3781 96.5955 87.7113C96.0683 88.3221 95.5061 88.9048 94.909 89.4594Z" fill="#734622"/>
</svg>
