<svg width="142" height="32" viewBox="0 0 142 32" fill="none" xmlns="http://www.w3.org/2000/svg">
<rect x="0.5" y="0.5" width="141" height="31" rx="15.5" stroke="#262626"/>
<rect width="32" height="32" rx="16" fill="#262626"/>
<path d="M12.5511 15.8528C12.5511 14.0289 14.0293 12.5499 15.8533 12.5499C17.6772 12.5499 19.1562 14.0289 19.1562 15.8528C19.1562 17.6768 17.6772 19.1558 15.8533 19.1558C14.0293 19.1558 12.5511 17.6768 12.5511 15.8528ZM10.7656 15.8528C10.7656 18.6628 13.0434 20.9405 15.8533 20.9405C18.6632 20.9405 20.9409 18.6628 20.9409 15.8528C20.9409 13.0429 18.6632 10.7652 15.8533 10.7652C13.0434 10.7652 10.7656 13.0429 10.7656 15.8528ZM19.9534 10.5635C19.9533 10.7986 20.0229 11.0285 20.1535 11.2241C20.284 11.4197 20.4697 11.5721 20.6869 11.6622C20.9041 11.7523 21.1432 11.7759 21.3738 11.7302C21.6045 11.6844 21.8164 11.5712 21.9827 11.405C22.1491 11.2388 22.2624 11.027 22.3083 10.7964C22.3543 10.5657 22.3309 10.3267 22.241 10.1094C22.1511 9.8921 21.9987 9.70634 21.8033 9.57562C21.6078 9.4449 21.378 9.37507 21.1428 9.37498H21.1423C20.8271 9.37513 20.5249 9.50037 20.3019 9.72321C20.079 9.94605 19.9536 10.2483 19.9534 10.5635ZM11.8504 23.9177C10.8844 23.8737 10.3594 23.7128 10.0105 23.5769C9.54788 23.3968 9.21783 23.1823 8.87081 22.8358C8.52379 22.4892 8.30899 22.1595 8.12969 21.6969C7.99367 21.3481 7.83277 20.8229 7.78886 19.857C7.74082 18.8126 7.73123 18.4988 7.73123 15.8529C7.73123 13.207 7.74161 12.8942 7.78886 11.8489C7.83285 10.8829 7.99494 10.3587 8.12969 10.0089C8.30978 9.54635 8.52427 9.21629 8.87081 8.86928C9.21735 8.52226 9.54709 8.30745 10.0105 8.12816C10.3592 7.99214 10.8844 7.83123 11.8504 7.78732C12.8948 7.73929 13.2085 7.72969 15.8533 7.72969C18.498 7.72969 18.812 7.74008 19.8573 7.78732C20.8233 7.83131 21.3475 7.99341 21.6973 8.12816C22.1598 8.30745 22.4899 8.52273 22.8369 8.86928C23.1839 9.21582 23.3979 9.54635 23.578 10.0089C23.714 10.3577 23.875 10.8829 23.9189 11.8489C23.9669 12.8942 23.9765 13.207 23.9765 15.8529C23.9765 18.4988 23.9669 18.8117 23.9189 19.857C23.8749 20.8229 23.7132 21.348 23.578 21.6969C23.3979 22.1595 23.1835 22.4896 22.8369 22.8358C22.4904 23.182 22.1598 23.3968 21.6973 23.5769C21.3485 23.7129 20.8233 23.8738 19.8573 23.9177C18.8129 23.9658 18.4992 23.9754 15.8533 23.9754C13.2074 23.9754 12.8945 23.9658 11.8504 23.9177ZM11.7684 6.00483C10.7136 6.05286 9.99287 6.22011 9.36344 6.46503C8.71157 6.71797 8.15973 7.0573 7.60829 7.60787C7.05685 8.15843 6.71839 8.71114 6.46546 9.36301C6.22054 9.99284 6.05329 10.7132 6.00525 11.768C5.95643 12.8244 5.94525 13.1621 5.94525 15.8528C5.94525 18.5435 5.95643 18.8813 6.00525 19.9377C6.05329 20.9926 6.22054 21.7128 6.46546 22.3427C6.71839 22.9941 7.05693 23.5475 7.60829 24.0978C8.15965 24.6482 8.71157 24.987 9.36344 25.2407C9.99406 25.4856 10.7136 25.6528 11.7684 25.7009C12.8254 25.7489 13.1626 25.7609 15.8533 25.7609C18.544 25.7609 18.8817 25.7497 19.9381 25.7009C20.993 25.6528 21.7133 25.4856 22.3431 25.2407C22.9946 24.987 23.5468 24.6484 24.0982 24.0978C24.6497 23.5473 24.9874 22.9941 25.2411 22.3427C25.486 21.7128 25.654 20.9925 25.7013 19.9377C25.7493 18.8805 25.7605 18.5435 25.7605 15.8528C25.7605 13.1621 25.7493 12.8244 25.7013 11.768C25.6532 10.7131 25.486 9.99245 25.2411 9.36301C24.9874 8.71154 24.6488 8.15931 24.0982 7.60787C23.5477 7.05642 22.9946 6.71797 22.3439 6.46503C21.7133 6.22011 20.9929 6.05207 19.9389 6.00483C18.8825 5.95679 18.5448 5.94482 15.8541 5.94482C13.1634 5.94482 12.8254 5.956 11.7684 6.00483Z" fill="white"/>
<path d="M50.0135 6.58353C48.5082 7.21684 46.8535 9.006 46.3309 11.2518C45.669 14.0973 48.4233 15.3006 48.6492 14.906C48.9151 14.4424 48.1557 14.2857 47.9994 12.8093C47.7973 10.9024 48.6793 8.77172 49.7893 7.83682C49.9956 7.66313 49.9858 7.90488 49.9858 8.35205C49.9858 9.15169 49.9419 16.3301 49.9419 17.8283C49.9419 19.8555 49.8586 20.4956 49.7089 21.1282C49.5574 21.7692 49.3137 22.2023 49.4983 22.3692C49.7046 22.5558 50.5855 22.1119 51.0955 21.3965C51.707 20.5384 51.9211 19.508 51.9595 18.389C52.006 17.04 52.004 14.8995 52.006 13.6785C52.0078 12.5587 52.0247 9.27977 51.9864 7.30857C51.977 6.82507 50.643 6.31781 50.0134 6.58295L50.0135 6.58353ZM103.465 16.0706C103.416 17.1245 103.184 17.9482 102.896 18.5293C102.338 19.6541 101.181 20.0034 100.69 18.3864C100.422 17.5049 100.409 16.0329 100.602 14.8028C100.798 13.5498 101.345 12.6034 102.251 12.6888C103.145 12.7732 103.563 13.9305 103.465 16.0706V16.0706ZM88.3998 22.6091C88.3877 24.3602 88.1135 25.8956 87.5255 26.3415C86.6916 26.9738 85.5707 26.4995 85.8028 25.2217C86.0081 24.091 86.9794 22.9362 88.4022 21.5253C88.4022 21.5253 88.4051 21.8471 88.3998 22.6091H88.3998ZM88.172 16.0604C88.121 17.0203 87.8735 17.9846 87.6034 18.5294C87.0458 19.6542 85.8803 20.0059 85.3973 18.3865C85.067 17.2801 85.1461 15.8481 85.3095 14.9458C85.5215 13.7751 86.0355 12.689 86.9586 12.689C87.856 12.689 88.2985 13.6787 88.172 16.0605V16.0604ZM79.445 16.0457C79.3903 17.0623 79.193 17.9121 78.8764 18.5294C78.3035 19.6465 77.1701 20.0008 76.6702 18.3865C76.3099 17.2225 76.4326 15.6353 76.5825 14.7779C76.8049 13.5056 77.362 12.6036 78.2315 12.689C79.1248 12.7768 79.559 13.9306 79.445 16.0458V16.0457ZM119.439 17.2332C119.221 17.2332 119.121 17.4594 119.038 17.8402C118.753 19.1643 118.452 19.4633 118.064 19.4633C117.631 19.4633 117.242 18.8076 117.142 17.4952C117.064 16.4632 117.076 14.5632 117.177 12.6733C117.197 12.2849 117.091 11.9007 116.055 11.5224C115.609 11.3596 114.961 11.12 114.638 11.903C113.726 14.115 113.369 15.8712 113.285 16.5847C113.281 16.6216 113.236 16.6291 113.228 16.5429C113.175 15.9715 113.055 14.9331 113.04 12.7515C113.037 12.3259 112.948 11.9636 112.48 11.6669C112.177 11.4745 111.256 11.1341 110.924 11.539C110.637 11.8703 110.304 12.7616 109.959 13.8182C109.678 14.6769 109.482 15.2578 109.482 15.2578C109.482 15.2578 109.486 12.9408 109.489 12.0619C109.49 11.7303 109.264 11.6198 109.196 11.5998C108.889 11.5102 108.284 11.3605 108.027 11.3605C107.71 11.3605 107.632 11.5385 107.632 11.798C107.632 11.8319 107.582 14.8486 107.582 16.958C107.582 17.0497 107.582 17.1496 107.583 17.2558C107.408 18.2253 106.84 19.5414 106.221 19.5414C105.602 19.5414 105.31 18.9912 105.31 16.4765C105.31 15.0094 105.354 14.3715 105.376 13.3105C105.388 12.6993 105.412 12.23 105.411 12.1235C105.407 11.7969 104.845 11.6323 104.583 11.5714C104.321 11.5101 104.092 11.4863 103.914 11.4965C103.662 11.5108 103.483 11.6772 103.483 11.906C103.483 12.0287 103.485 12.262 103.485 12.262C103.16 11.7487 102.637 11.3915 102.289 11.288C101.353 11.0084 100.376 11.2562 99.6384 12.293C99.0525 13.1167 98.6994 14.0498 98.5604 15.3903C98.4587 16.3703 98.4919 17.3641 98.6725 18.2045C98.4543 19.1529 98.0491 19.5414 97.6055 19.5414C96.9614 19.5414 96.4945 18.4848 96.5487 16.6574C96.5845 15.4554 96.8238 14.6119 97.0853 13.3916C97.1969 12.8714 97.1063 12.599 96.879 12.338C96.6705 12.0986 96.2264 11.9763 95.5879 12.1267C95.1331 12.234 94.4829 12.3493 93.8879 12.4379C93.8879 12.4379 93.9238 12.2939 93.9533 12.0401C94.108 10.7091 92.669 10.8171 92.2099 11.2422C91.9358 11.496 91.7493 11.7954 91.6785 12.3336C91.5662 13.1878 92.2593 13.5907 92.2593 13.5907C92.0319 14.6369 91.4745 16.0037 90.899 16.9918C90.5908 17.5212 90.355 17.9135 90.0506 18.3306C90.0495 18.1753 90.0486 18.02 90.0481 17.8655C90.0411 15.6658 90.0702 13.9346 90.0831 13.3107C90.0956 12.6995 90.12 12.2427 90.1186 12.1361C90.1152 11.8973 89.9764 11.8071 89.6877 11.6928C89.4325 11.5918 89.1307 11.5219 88.8176 11.4975C88.4225 11.4665 88.1845 11.6772 88.1907 11.9263C88.1919 11.9733 88.1919 12.2621 88.1919 12.2621C87.8669 11.7488 87.3443 11.3916 86.9966 11.2881C86.06 11.0086 85.0827 11.2564 84.3456 12.293C83.7598 13.1168 83.3762 14.2728 83.2675 15.3802C83.1663 16.4122 83.185 17.2893 83.323 18.0281C83.1741 18.7679 82.7459 19.5415 82.2618 19.5415C81.6429 19.5415 81.2907 18.9913 81.2907 16.4766C81.2907 15.0095 81.3345 14.3716 81.3561 13.3107C81.3686 12.6995 81.3927 12.2301 81.3913 12.1237C81.3868 11.7971 80.8249 11.6325 80.5635 11.5715C80.2899 11.5079 80.0537 11.4846 79.8724 11.498C79.6331 11.5159 79.4649 11.7313 79.4649 11.8919V12.2621C79.1399 11.7488 78.6173 11.3916 78.2696 11.2881C77.333 11.0086 76.3612 11.2604 75.6186 12.293C75.1343 12.9664 74.7423 13.7129 74.5405 15.3655C74.4822 15.843 74.4565 16.2902 74.4598 16.7082C74.2667 17.8952 73.4138 19.2633 72.7162 19.2633C72.3079 19.2633 71.9191 18.4674 71.9191 16.7712C71.9191 14.5117 72.0583 11.2947 72.0818 10.9846C72.0818 10.9846 72.9633 10.9696 73.134 10.9676C73.5736 10.9627 73.9719 10.9732 74.5575 10.9431C74.8512 10.928 75.1342 9.86846 74.8311 9.73732C74.6937 9.67797 73.7226 9.62597 73.3376 9.61775C73.0139 9.61038 72.1127 9.54335 72.1127 9.54335C72.1127 9.54335 72.1936 7.40804 72.2124 7.18247C72.2283 6.99447 71.9863 6.89768 71.8476 6.83894C71.5101 6.69549 71.2082 6.6268 70.8504 6.55265C70.356 6.45013 70.1317 6.55041 70.0878 6.96983C70.0219 7.60637 69.9877 9.47081 69.9877 9.47081C69.6249 9.47081 68.3855 9.39952 68.0226 9.39952C67.6854 9.39952 67.3215 10.8571 67.7877 10.875C68.324 10.8959 69.2587 10.914 69.8784 10.9328C69.8784 10.9328 69.8508 14.2028 69.8508 15.2123C69.8508 15.3197 69.8517 15.4232 69.8519 15.5235C69.5109 17.3102 68.3097 18.2753 68.3097 18.2753C68.5676 17.0933 68.0407 16.2057 67.0915 15.4543C66.7418 15.1775 66.0514 14.6533 65.279 14.0789C65.279 14.0789 65.7264 13.6357 66.1231 12.7441C66.4042 12.1125 66.4164 11.3898 65.7264 11.2304C64.5863 10.9669 63.6463 11.8084 63.3659 12.7069C63.1487 13.4029 63.2645 13.9194 63.6901 14.4559C63.7212 14.4951 63.7548 14.5351 63.7896 14.5754C63.5323 15.074 63.1787 15.7453 62.8793 16.2658C62.0482 17.7111 61.4204 18.8543 60.9459 18.8543C60.5666 18.8543 60.5717 17.6936 60.5717 16.607C60.5717 15.6702 60.6405 14.2618 60.6955 12.8036C60.7137 12.3213 60.4738 12.0466 60.0716 11.7977C59.8272 11.6466 59.3057 11.3493 59.0037 11.3493C58.5516 11.3493 57.2473 11.4112 56.0149 14.9944C55.8596 15.446 55.5545 16.2689 55.5545 16.2689L55.5807 11.96C55.5807 11.859 55.5272 11.7613 55.4046 11.6945C55.1969 11.5811 54.6423 11.3493 54.1491 11.3493C53.9141 11.3493 53.7968 11.4592 53.7968 11.6782L53.7538 18.4195C53.7538 18.9318 53.7671 19.5293 53.8174 19.7906C53.8676 20.0523 53.949 20.2652 54.0497 20.3919C54.1503 20.5183 54.2666 20.6147 54.4584 20.6545C54.6369 20.6914 55.6145 20.8176 55.6653 20.4421C55.7262 19.9921 55.7285 19.5054 56.2419 17.6901C57.041 14.8638 58.0829 13.4849 58.5727 12.9952C58.6584 12.9096 58.7562 12.9045 58.7515 13.0446C58.7306 13.6642 58.657 15.2125 58.6075 16.5278C58.4748 20.048 59.1119 20.7004 60.0224 20.7004C60.7189 20.7004 61.7008 20.0048 62.7534 18.2439C63.4095 17.1465 64.0467 16.0705 64.5044 15.295C64.8234 15.5918 65.1814 15.9112 65.5391 16.2525C66.3705 17.0456 66.6434 17.7992 66.4623 18.5141C66.3238 19.0606 65.8022 19.6239 64.8738 19.0764C64.6032 18.9167 64.4877 18.7933 64.2156 18.6133C64.0694 18.5165 63.8463 18.4876 63.7124 18.5889C63.3649 18.8524 63.1661 19.1874 63.0525 19.6022C62.9421 20.0059 63.3443 20.2193 63.7612 20.4059C64.1202 20.5665 64.8917 20.7121 65.3838 20.7286C67.301 20.7931 68.8368 19.7982 69.9059 17.2319C70.0973 19.4482 70.9118 20.7024 72.3269 20.7024C73.273 20.7024 74.2216 19.4732 74.6364 18.264C74.7555 18.7569 74.9318 19.1855 75.1594 19.548C76.2498 21.2846 78.3652 20.9108 79.4278 19.4362C79.7563 18.9805 79.8063 18.8168 79.8063 18.8168C79.9613 20.2092 81.0769 20.6957 81.7156 20.6957C82.431 20.6957 83.1696 20.3558 83.6872 19.1843C83.7479 19.3115 83.8141 19.4329 83.8864 19.548C84.9768 21.2845 87.0922 20.9108 88.1548 19.4361C88.2049 19.367 88.2484 19.3042 88.2864 19.2479L88.3176 20.1625C88.3176 20.1625 87.7114 20.7214 87.3393 21.0643C85.7016 22.5745 84.4563 23.7203 84.3647 25.0546C84.2471 26.7559 85.6199 27.3882 86.6585 27.4711C87.7614 27.5591 88.7059 26.9467 89.2864 26.0896C89.7971 25.3353 90.1313 23.7117 90.1068 22.1082C90.097 21.4661 90.0809 20.6496 90.0683 19.7744C90.6439 19.1026 91.2924 18.2534 91.8895 17.2594C92.5403 16.1762 93.2377 14.7215 93.5948 13.5894C93.5948 13.5894 94.2007 13.5946 94.8474 13.552C95.0542 13.5385 95.1137 13.5809 95.0754 13.7333C95.0292 13.9175 94.2584 16.9058 94.9619 18.8965C95.4434 20.2593 96.5289 20.6978 97.1725 20.6978C97.9258 20.6978 98.6465 20.1259 99.0327 19.2768C99.0793 19.3714 99.1279 19.463 99.181 19.5476C100.271 21.2841 102.379 20.9081 103.449 19.4358C103.691 19.1036 103.828 18.8164 103.828 18.8164C104.058 20.2574 105.172 20.7026 105.811 20.7026C106.476 20.7026 107.108 20.4285 107.62 19.2103C107.641 19.7467 107.675 20.1853 107.728 20.3235C107.761 20.4081 107.95 20.5143 108.087 20.5655C108.696 20.7923 109.316 20.6851 109.546 20.6384C109.705 20.6061 109.829 20.4778 109.846 20.1466C109.891 19.2769 109.863 17.8157 110.126 16.7297C110.566 14.9072 110.977 14.2003 111.171 13.8503C111.28 13.6542 111.403 13.6218 111.408 13.8294C111.417 14.2493 111.438 15.4824 111.608 17.1392C111.734 18.3577 111.901 19.0779 112.03 19.3059C112.397 19.9577 112.85 19.9886 113.219 19.9886C113.454 19.9886 113.945 19.9234 113.901 19.5085C113.88 19.3064 113.917 18.0568 114.351 16.2613C114.635 15.0888 115.107 14.0293 115.278 13.642C115.341 13.4992 115.37 13.6117 115.369 13.6337C115.333 14.4412 115.252 17.0824 115.58 18.5269C116.023 20.4838 117.307 20.7028 117.754 20.7028C118.709 20.7028 119.49 19.9728 119.753 18.052C119.816 17.5897 119.722 17.2328 119.441 17.2328" fill="#262626"/>
</svg>
