<svg width="246" height="108" viewBox="0 0 246 108" fill="none" xmlns="http://www.w3.org/2000/svg">
<g clip-path="url(#clip0)">
<path fill-rule="evenodd" clip-rule="evenodd" d="M18.5749 90.4726C18.5749 91.2458 18.3204 92.0191 18.066 92.7924C17.8115 93.8234 17.3026 94.5967 16.7937 95.3699C16.2848 95.8854 15.5215 96.6587 14.5037 97.1742C13.7403 97.432 12.4681 97.6897 11.1958 97.6897H6.10681V104.907H9.16022V107.484H0V104.907H2.29005V85.8329H0V83.2554H10.6869C13.2314 83.2554 15.0126 83.7709 16.5393 85.0597C17.8115 86.3484 18.5749 88.1527 18.5749 90.4726ZM103.307 40.7255C102.035 39.9523 100.762 39.6945 99.4902 39.4368C98.7268 39.179 98.2179 39.179 97.4546 39.179C97.709 39.9523 98.2179 40.4678 98.4724 40.9833C99.2357 42.0143 100.508 42.7876 101.526 43.5609C102.798 44.3341 104.07 44.8496 105.343 44.8496C105.851 45.1074 106.615 45.1074 107.124 45.1074H107.378C107.124 44.3341 106.615 43.8186 106.36 43.3031C105.597 42.2721 104.325 41.4988 103.307 40.7255ZM137.403 44.0764C138.421 44.0764 139.439 44.8496 139.439 46.1384C139.439 47.1694 138.421 48.2005 137.403 48.2005C136.131 48.2005 135.368 47.1694 135.368 46.1384C135.368 44.8496 136.131 44.0764 137.403 44.0764ZM104.834 49.747C104.07 50.2625 103.561 51.0358 103.307 51.8091C103.052 52.0668 103.052 52.3246 103.052 52.5823C103.052 52.3246 103.307 52.3246 103.561 52.3246C104.325 51.8091 105.088 51.2936 105.851 50.778C106.36 50.0048 107.124 49.2315 107.378 48.4582C107.378 48.2005 107.633 47.9427 107.633 47.685C107.378 47.9427 107.124 47.9427 106.869 47.9427C106.106 48.4582 105.343 48.9738 104.834 49.4893V49.747ZM100.762 50.778C101.271 49.747 102.035 48.716 102.798 47.685C103.052 47.4272 103.052 47.4272 103.307 47.1695C102.289 46.9117 101.271 46.3962 100.254 45.8807C98.7268 45.1074 97.4546 43.8186 96.4368 42.7876C95.419 41.4988 94.6556 39.9523 94.4012 38.6635L93.8923 37.1169L95.1645 36.8592C96.6912 36.6014 98.2179 36.3437 99.9991 36.6014C101.526 36.8592 103.052 37.6325 104.579 38.4057C106.106 39.179 107.378 40.4678 108.396 41.4988C108.905 42.2721 109.414 43.0453 109.668 43.8186C111.958 42.0143 114.503 40.4678 117.302 39.4368C120.864 38.148 124.681 37.3747 128.752 37.3747C132.823 37.3747 136.64 38.148 139.948 39.4368C143.51 40.7255 146.818 42.7876 149.108 45.1074L150.126 46.1384L149.108 47.1695C146.818 49.4893 143.51 51.5513 139.948 52.8401C136.64 54.1289 132.823 54.9021 128.752 54.9021C124.681 54.9021 120.864 54.1289 117.302 52.8401C114.503 51.8091 112.213 50.5203 110.177 48.716C109.923 48.9737 109.923 49.2315 109.923 49.4893C109.414 50.778 108.65 51.8091 107.633 52.5823C106.869 53.6134 105.851 54.3866 104.834 54.6444C103.561 55.1599 102.544 55.4177 101.271 55.4177H99.9991V54.1289C99.9991 53.0979 100.254 51.8091 100.762 50.778ZM139.184 42.0143C135.877 40.7255 132.569 40.21 128.752 40.21C124.935 40.21 121.373 40.7255 118.32 42.0143C115.521 43.0453 113.23 44.3341 111.195 46.1384C113.23 47.9427 115.521 49.2315 118.32 50.2625C121.373 51.5513 124.935 52.0668 128.752 52.0668C132.569 52.0668 135.877 51.5513 139.184 50.2625C141.729 49.2315 144.273 47.9427 146.055 46.1384C144.273 44.3341 141.729 43.0453 139.184 42.0143ZM121.882 65.2124C118.065 65.2124 114.757 66.5012 111.195 68.0477C107.887 69.3365 104.579 70.6253 101.526 70.6253C98.4724 70.6253 95.1645 69.3365 91.8567 68.0477C88.2943 66.5012 84.9865 65.2124 81.1697 65.2124C77.6074 65.2124 74.0451 66.5012 70.4828 68.0477C67.1749 69.3365 64.1215 70.6253 60.8137 70.6253C57.7603 70.6253 54.4524 69.3365 51.1446 68.0477C47.8367 66.5012 44.2744 65.2124 40.4576 65.2124C36.8953 65.2124 33.333 66.5012 29.7707 68.0477C26.4629 69.3365 23.4095 70.6253 20.1016 70.6253C19.3382 70.6253 18.5749 71.1408 18.5749 72.1718C18.5749 72.9451 19.3382 73.4606 20.1016 73.4606C23.9184 73.4606 27.4807 72.1718 30.7885 70.6253C34.0964 69.3365 37.4042 68.0477 40.4576 68.0477C43.7655 68.0477 46.8189 69.3365 50.1268 70.6253C53.6891 72.1718 57.2514 73.4606 60.8137 73.4606C64.6304 73.4606 68.1927 72.1718 71.5006 70.6253C74.8085 69.3365 78.1163 68.0477 81.1697 68.0477C84.2231 68.0477 87.531 69.3365 90.8388 70.6253C94.4012 72.1718 97.709 73.4606 101.526 73.4606C105.343 73.4606 108.65 72.1718 112.213 70.6253C115.521 69.3365 118.828 68.0477 121.882 68.0477C124.935 68.0477 128.243 69.3365 131.551 70.6253C135.113 72.1718 138.421 73.4606 142.238 73.4606C146.055 73.4606 149.362 72.1718 152.925 70.6253C156.233 69.3365 159.54 68.0477 162.594 68.0477C165.647 68.0477 168.955 69.3365 172.263 70.6253C175.571 72.1718 179.133 73.4606 182.95 73.4606C186.512 73.4606 190.075 72.1718 193.637 70.6253C196.945 69.3365 199.998 68.0477 203.306 68.0477C206.359 68.0477 209.667 69.3365 212.975 70.6253C216.283 72.1718 219.845 73.4606 223.662 73.4606C224.425 73.4606 225.189 72.9451 225.189 72.1718C225.189 71.1408 224.425 70.6253 223.662 70.6253C220.354 70.6253 217.301 69.3365 213.993 68.0477C210.431 66.5012 206.868 65.2124 203.306 65.2124C199.489 65.2124 195.927 66.5012 192.619 68.0477C189.311 69.3365 186.003 70.6253 182.95 70.6253C179.642 70.6253 176.589 69.3365 173.281 68.0477C169.719 66.5012 166.156 65.2124 162.594 65.2124C158.777 65.2124 155.469 66.5012 151.907 68.0477C148.599 69.3365 145.291 70.6253 142.238 70.6253C139.184 70.6253 135.877 69.3365 132.569 68.0477C129.006 66.5012 125.699 65.2124 121.882 65.2124ZM121.882 0C122.9 0 123.663 2.83532 123.663 6.70167C123.663 10.3103 122.9 13.1456 121.882 13.1456C120.864 13.1456 120.101 10.3103 120.101 6.70167C120.101 2.83532 120.864 0 121.882 0ZM104.07 2.31981C105.088 2.06205 106.615 4.63962 107.633 8.24821C108.396 11.8568 108.396 14.9499 107.378 15.2076C106.36 15.4654 104.834 12.8878 103.816 9.27924C103.052 5.67064 103.052 2.57757 104.07 2.31981ZM87.2765 9.27924C88.2943 8.76372 90.5844 11.0835 92.3656 14.1766C94.1467 17.2697 94.9101 20.3628 93.8923 20.8783C93.1289 21.3938 90.8389 19.074 89.0577 15.9809C87.2765 12.8878 86.5132 9.79475 87.2765 9.27924ZM73.0273 20.3628C73.7907 19.8473 76.5896 21.136 79.1341 23.7136C81.6786 26.2912 82.9509 29.1265 82.442 29.8998C81.6786 30.673 78.8797 29.1265 76.3352 26.5489C73.7907 23.9714 72.264 21.136 73.0273 20.3628ZM161.322 29.8998C160.813 29.1265 162.085 26.2912 164.63 23.7136C167.174 21.136 169.973 19.8473 170.736 20.3628C171.5 21.136 169.973 23.9714 167.428 26.5489C164.884 29.1265 162.085 30.673 161.322 29.8998ZM170.227 41.4988C169.719 40.7255 172.009 38.4057 175.062 36.6014C178.115 34.7971 181.169 34.0239 181.678 35.0549C182.187 35.8282 179.897 38.148 176.843 39.9523C173.79 41.7566 170.736 42.5298 170.227 41.4988ZM175.825 55.1599C175.571 54.1289 178.115 52.5823 181.678 51.5513C185.24 50.778 188.293 50.778 188.548 51.8091C188.802 52.8401 186.258 54.3866 182.695 55.4177C179.133 56.1909 176.08 56.1909 175.825 55.1599ZM55.2158 51.8091C55.4702 50.778 58.5236 50.778 62.0859 51.5513C65.6482 52.5823 68.1927 54.1289 67.9383 55.1599C67.6838 56.1909 64.6304 56.1909 61.0681 55.4177C57.5058 54.3866 54.9613 52.8401 55.2158 51.8091ZM62.0859 35.0549C62.5948 34.0239 65.6482 34.7971 68.7016 36.6014C71.7551 38.4057 74.0451 40.7255 73.5362 41.4988C73.0273 42.5298 69.9739 41.7566 66.9205 39.9523C63.8671 38.148 61.577 35.8282 62.0859 35.0549ZM149.871 20.8783C148.854 20.3628 149.617 17.2697 151.398 14.1766C153.179 11.0835 155.469 8.76372 156.487 9.27924C157.25 9.79475 156.487 12.8878 154.706 15.9809C152.925 19.074 150.635 21.3938 149.871 20.8783ZM136.385 15.2076C135.368 14.9499 135.368 11.8568 136.131 8.24821C137.149 4.63962 138.676 2.06205 139.693 2.31981C140.711 2.57757 140.711 5.67064 139.948 9.27924C138.93 12.8878 137.403 15.4654 136.385 15.2076ZM104.579 93.3079H109.414V95.1122H108.396V101.814H109.414V103.618H104.579V101.814H105.597V97.6897C104.834 98.463 104.325 98.9785 103.561 99.494C103.052 100.01 102.289 100.783 101.78 101.298V101.814H102.798V103.618H97.9635V101.814H98.9813V95.1122H97.9635V93.3079H102.798V95.1122H101.78V98.9785L105.597 95.6277V95.1122H104.579V93.3079ZM224.934 107.484V104.907H227.479V85.8329H225.189V83.2554H243.255V89.6993H240.456V85.8329H231.296V93.5656L239.692 93.3079V96.1432H231.296V104.907H240.965V101.041H243.764V107.484H224.934ZM216.029 90.4726C216.029 91.2458 216.029 92.0191 215.774 92.7924C215.52 93.8234 215.011 94.5967 214.502 95.3699C213.738 95.8854 212.975 96.6587 212.212 97.1742C211.194 97.432 209.922 97.6897 208.649 97.6897H203.815V104.907H206.868V107.484H197.454V104.907H199.744V85.8329H197.454V83.2554H208.395C210.685 83.2554 212.721 83.7709 213.993 85.0597C215.265 86.3484 216.029 88.1527 216.029 90.4726ZM203.815 85.8329V95.1122H207.886C208.395 95.1122 208.904 94.8544 209.413 94.8544C209.922 94.5967 210.431 94.3389 210.685 94.0811C211.194 93.8234 211.448 93.3079 211.703 92.5346C211.957 92.0191 211.957 91.2458 211.957 90.4726C211.957 88.926 211.703 87.6372 210.94 87.1217C210.176 86.3484 209.158 85.8329 207.632 85.8329H203.815ZM187.785 95.3699C187.785 97.1742 187.785 98.7208 187.276 100.267C186.767 101.814 186.003 103.103 185.24 104.391C184.477 105.422 183.204 106.196 181.932 106.969C180.66 107.484 179.133 108 177.352 108C175.571 108 173.79 107.484 172.517 106.969C171.245 106.453 169.973 105.68 169.21 104.391C168.446 103.36 167.683 102.072 167.174 100.525C166.92 98.9785 166.665 97.432 166.665 95.6277C166.665 93.8234 166.92 92.2768 167.174 90.7303C167.683 89.1838 168.192 87.6372 169.21 86.6062C169.973 85.3174 170.991 84.5442 172.517 83.7709C173.79 83.2554 175.571 82.7399 177.352 82.7399C179.388 82.7399 180.914 83.2554 182.441 83.7709C183.713 84.5442 184.731 85.3174 185.494 86.6062C186.512 87.6372 187.021 89.1838 187.276 90.4726C187.785 92.0191 187.785 93.8234 187.785 95.3699ZM183.713 95.6277C183.713 94.3389 183.713 93.3079 183.459 92.0191C183.459 90.7303 183.204 89.6993 182.695 88.926C182.187 87.895 181.423 87.1217 180.66 86.6062C179.897 86.0907 178.624 85.8329 177.352 85.8329C176.08 85.8329 175.062 86.0907 174.044 86.6062C173.281 87.1217 172.517 87.895 172.009 88.6683C171.5 89.6993 171.245 90.7303 170.991 92.0191C170.736 93.0501 170.736 94.3389 170.736 95.6277C170.736 98.7208 171.245 101.041 172.263 102.587C173.281 104.134 175.062 104.907 177.352 104.907C178.624 104.907 179.388 104.649 180.405 104.134C181.169 103.618 181.678 103.103 182.187 102.329C182.95 101.298 183.204 100.267 183.459 99.2363C183.713 98.2052 183.713 96.9165 183.713 95.6277ZM142.747 100.525C143.001 99.7518 143.256 99.2363 143.51 98.463C143.765 97.9475 144.019 97.1742 144.273 96.6587L148.09 87.895L149.871 83.2554H157.25V85.8329H154.96V104.907H157.25V107.484H149.108V104.907H151.144V88.6683L149.617 92.0191C149.362 93.0501 148.854 93.8234 148.599 94.8544C148.09 95.6277 147.836 96.401 147.327 97.432C146.818 98.463 146.309 99.7518 145.8 100.783C145.291 102.072 144.782 103.36 144.273 104.391H140.711C140.202 103.36 139.693 102.072 139.184 100.783C138.421 99.7518 137.912 98.463 137.403 97.1742L135.113 92.0191L133.841 88.6683H133.587C133.587 91.5036 133.587 94.0811 133.587 96.9165C133.587 99.494 133.587 102.072 133.587 104.907H135.877V107.484H127.734V104.907H130.024V85.8329H127.734V83.2554H134.859C135.368 84.0286 135.622 84.8019 136.131 85.5752C136.385 86.3484 136.894 87.3795 137.149 88.4105C137.912 89.4415 138.421 90.7303 138.93 92.0191C139.439 93.5656 139.948 94.5967 140.457 95.8854C140.966 96.9165 141.22 97.6897 141.475 98.463C141.983 99.2363 142.238 99.7518 142.492 100.525H142.747ZM64.6304 95.3699C64.6304 96.9165 64.8849 98.2052 65.1393 99.2363C65.3938 100.525 65.6482 101.298 66.1571 102.072C66.9205 103.103 67.6838 103.618 68.7016 104.134C69.465 104.391 70.7373 104.649 72.264 104.649C72.5184 104.649 73.0273 104.649 73.2818 104.649C73.7907 104.649 74.2996 104.649 74.8085 104.391C75.3174 104.391 75.8263 104.391 76.3352 104.134C76.8441 104.134 77.353 104.134 77.8619 103.876L78.6252 106.711C78.1163 106.969 77.6074 106.969 77.0985 107.227C76.3352 107.227 75.8263 107.484 75.3174 107.484C74.554 107.742 74.0451 107.742 73.2818 107.742C72.5184 107.742 72.0095 108 71.5006 108C69.465 108 67.6838 107.484 66.4116 106.969C64.8849 106.196 63.8671 105.422 63.1037 104.391C62.0859 103.36 61.577 101.814 61.3226 100.525C60.8137 98.9785 60.5592 97.1742 60.5592 95.3699C60.5592 94.0811 60.8137 92.7924 61.0681 91.2458C61.577 89.6993 62.0859 88.4105 62.8493 87.1217C63.6126 85.8329 64.8849 84.8019 66.1571 84.0286C67.6838 83.2554 69.465 82.7399 71.7551 82.7399C73.0273 82.7399 74.0451 82.7399 75.3174 82.9976C76.3352 83.2554 77.0985 83.5131 77.8619 83.7709V89.957H75.0629V86.0907C74.554 86.0907 74.0451 86.0907 73.5362 85.8329C72.7729 85.8329 72.264 85.8329 71.7551 85.8329C70.4828 85.8329 69.465 86.0907 68.4472 86.6062C67.6839 86.864 66.9205 87.6372 66.4116 88.4105C65.9027 89.1838 65.3938 90.2148 65.1393 91.5036C64.8849 92.7924 64.6304 94.0811 64.6304 95.3699ZM42.2388 83.2554H51.1446V85.8329H48.6001V104.907H51.1446V107.484H42.4932V104.907H45.0377V90.7303H44.7833C43.0021 92.7924 40.9665 95.1122 39.1854 97.1742C37.4042 99.494 35.3686 101.556 33.5875 103.876V104.907H35.8775V107.484H27.2262V104.907H29.7707V85.8329H27.4807V83.2554H36.132V85.8329H33.5875V100.01C35.6231 97.9475 37.4042 95.6277 39.4398 93.5656C41.221 91.2458 43.0021 89.1838 45.0377 86.864V85.8329H42.2388V83.2554ZM6.10681 85.8329V95.1122H10.178C10.6869 95.1122 11.1958 94.8544 11.7047 94.8544C12.2136 94.5967 12.7225 94.3389 13.2314 94.0811C13.4859 93.8234 13.9948 93.3079 14.2492 92.5346C14.2492 92.0191 14.5037 91.2458 14.5037 90.4726C14.5037 88.926 13.9948 87.6372 13.2314 87.1217C12.4681 86.3484 11.4503 85.8329 10.178 85.8329H6.10681Z" fill="white"/>
</g>
<defs>
<clipPath id="clip0">
<rect width="243.764" height="108" fill="white"/>
</clipPath>
</defs>
</svg>
