<svg width="56" height="24" viewBox="0 0 56 24" fill="none" xmlns="http://www.w3.org/2000/svg">
<path fill-rule="evenodd" clip-rule="evenodd" d="M23.0165 13.2332C22.6752 12.9945 22.3338 12.915 21.9925 12.8354C21.7877 12.7559 21.6511 12.7559 21.4463 12.7559C21.5146 12.9945 21.6511 13.1536 21.7194 13.3127C21.9242 13.631 22.2656 13.8696 22.5386 14.1083C22.88 14.3469 23.2213 14.5061 23.5626 14.5061C23.6992 14.5856 23.904 14.5856 24.0405 14.5856H24.1088C24.0405 14.3469 23.904 14.1878 23.8357 14.0287C23.6309 13.7105 23.2896 13.4718 23.0165 13.2332ZM32.1643 14.2674C32.4374 14.2674 32.7104 14.5061 32.7104 14.9038C32.7104 15.222 32.4374 15.5403 32.1643 15.5403C31.823 15.5403 31.6182 15.222 31.6182 14.9038C31.6182 14.5061 31.823 14.2674 32.1643 14.2674ZM23.4261 16.0176C23.2213 16.1767 23.0848 16.4154 23.0165 16.654C22.9482 16.7336 22.9482 16.8131 22.9482 16.8927C22.9482 16.8131 23.0165 16.8131 23.0848 16.8131C23.2896 16.654 23.4944 16.4949 23.6992 16.3358C23.8357 16.0971 24.0405 15.8585 24.1088 15.6198C24.1088 15.5403 24.177 15.4607 24.177 15.3812C24.1088 15.4607 24.0405 15.4607 23.9722 15.4607C23.7674 15.6198 23.5626 15.7789 23.4261 15.938V16.0176ZM22.3338 16.3358C22.4704 16.0176 22.6752 15.6994 22.88 15.3812C22.9482 15.3016 22.9482 15.3016 23.0165 15.222C22.7434 15.1425 22.4704 14.9834 22.1973 14.8243C21.7877 14.5856 21.4463 14.1878 21.1733 13.8696C20.9002 13.4718 20.6954 12.9945 20.6271 12.5967L20.4906 12.1194L20.8319 12.0399C21.2415 11.9603 21.6511 11.8808 22.129 11.9603C22.5386 12.0399 22.9482 12.2785 23.3578 12.5172C23.7674 12.7559 24.1088 13.1536 24.3818 13.4718C24.5184 13.7105 24.6549 13.9492 24.7232 14.1878C25.3376 13.631 26.0202 13.1536 26.7712 12.8354C27.7269 12.4376 28.7509 12.199 29.8432 12.199C30.9355 12.199 31.9595 12.4376 32.847 12.8354C33.8027 13.2332 34.6902 13.8696 35.3046 14.5856L35.5777 14.9038L35.3046 15.222C34.6902 15.938 33.8027 16.5745 32.847 16.9722C31.9595 17.37 30.9355 17.6087 29.8432 17.6087C28.7509 17.6087 27.7269 17.37 26.7712 16.9722C26.0202 16.654 25.4058 16.2563 24.8597 15.6994C24.7914 15.7789 24.7914 15.8585 24.7914 15.938C24.6549 16.3358 24.4501 16.654 24.177 16.8927C23.9722 17.2109 23.6992 17.4496 23.4261 17.5291C23.0848 17.6882 22.8117 17.7678 22.4704 17.7678H22.129V17.37C22.129 17.0518 22.1973 16.654 22.3338 16.3358ZM32.6422 13.631C31.7547 13.2332 30.8672 13.0741 29.8432 13.0741C28.8192 13.0741 27.8635 13.2332 27.0443 13.631C26.2933 13.9492 25.6789 14.3469 25.1328 14.9038C25.6789 15.4607 26.2933 15.8585 27.0443 16.1767C27.8635 16.5745 28.8192 16.7336 29.8432 16.7336C30.8672 16.7336 31.7547 16.5745 32.6422 16.1767C33.3248 15.8585 34.0075 15.4607 34.4854 14.9038C34.0075 14.3469 33.3248 13.9492 32.6422 13.631ZM28 20.7909C26.976 20.7909 26.0885 21.1886 25.1328 21.666C24.2453 22.0637 23.3578 22.4615 22.5386 22.4615C21.7194 22.4615 20.8319 22.0637 19.9445 21.666C18.9887 21.1886 18.1013 20.7909 17.0772 20.7909C16.1215 20.7909 15.1658 21.1886 14.21 21.666C13.3225 22.0637 12.5033 22.4615 11.6159 22.4615C10.7967 22.4615 9.90919 22.0637 9.02171 21.666C8.13424 21.1886 7.1785 20.7909 6.15449 20.7909C5.19875 20.7909 4.24301 21.1886 3.28727 21.666C2.39979 22.0637 1.58059 22.4615 0.693112 22.4615C0.48831 22.4615 0.283508 22.6206 0.283508 22.9388C0.283508 23.1775 0.48831 23.3366 0.693112 23.3366C1.71712 23.3366 2.67286 22.9388 3.56033 22.4615C4.44781 22.0637 5.33528 21.666 6.15449 21.666C7.04196 21.666 7.86117 22.0637 8.74864 22.4615C9.70438 22.9388 10.6601 23.3366 11.6159 23.3366C12.6399 23.3366 13.5956 22.9388 14.4831 22.4615C15.3706 22.0637 16.258 21.666 17.0772 21.666C17.8965 21.666 18.7839 22.0637 19.6714 22.4615C20.6271 22.9388 21.5146 23.3366 22.5386 23.3366C23.5626 23.3366 24.4501 22.9388 25.4058 22.4615C26.2933 22.0637 27.1808 21.666 28 21.666C28.8192 21.666 29.7067 22.0637 30.5942 22.4615C31.5499 22.9388 32.4374 23.3366 33.4614 23.3366C34.4854 23.3366 35.3729 22.9388 36.3286 22.4615C37.2161 22.0637 38.1035 21.666 38.9228 21.666C39.742 21.666 40.6294 22.0637 41.5169 22.4615C42.4044 22.9388 43.3601 23.3366 44.3841 23.3366C45.3399 23.3366 46.2956 22.9388 47.2514 22.4615C48.1388 22.0637 48.958 21.666 49.8455 21.666C50.6647 21.666 51.5522 22.0637 52.4397 22.4615C53.3271 22.9388 54.2829 23.3366 55.3069 23.3366C55.5117 23.3366 55.7165 23.1775 55.7165 22.9388C55.7165 22.6206 55.5117 22.4615 55.3069 22.4615C54.4194 22.4615 53.6002 22.0637 52.7127 21.666C51.757 21.1886 50.8013 20.7909 49.8455 20.7909C48.8215 20.7909 47.8658 21.1886 46.9783 21.666C46.0908 22.0637 45.2033 22.4615 44.3841 22.4615C43.4967 22.4615 42.6775 22.0637 41.79 21.666C40.8342 21.1886 39.8785 20.7909 38.9228 20.7909C37.8987 20.7909 37.0113 21.1886 36.0555 21.666C35.1681 22.0637 34.2806 22.4615 33.4614 22.4615C32.6422 22.4615 31.7547 22.0637 30.8672 21.666C29.9115 21.1886 29.024 20.7909 28 20.7909ZM28 0.663574C28.2731 0.663574 28.4779 1.53867 28.4779 2.73199C28.4779 3.84575 28.2731 4.72085 28 4.72085C27.7269 4.72085 27.5221 3.84575 27.5221 2.73199C27.5221 1.53867 27.7269 0.663574 28 0.663574ZM23.2213 1.37956C23.4944 1.30001 23.904 2.09556 24.177 3.20932C24.3818 4.32308 24.3818 5.27773 24.1088 5.35729C23.8357 5.43684 23.4261 4.6413 23.153 3.52754C22.9482 2.41377 22.9482 1.45912 23.2213 1.37956ZM18.7157 3.52754C18.9887 3.36843 19.6031 4.08442 20.081 5.03907C20.5589 5.99373 20.7637 6.94838 20.4906 7.10749C20.2858 7.2666 19.6714 6.55061 19.1935 5.59595C18.7157 4.6413 18.5109 3.68665 18.7157 3.52754ZM14.8927 6.94838C15.0975 6.78927 15.8484 7.18704 16.5311 7.98259C17.2138 8.77813 17.5551 9.65323 17.4186 9.8919C17.2138 10.1306 16.4628 9.65323 15.7802 8.85769C15.0975 8.06214 14.6879 7.18704 14.8927 6.94838ZM38.5814 9.8919C38.4449 9.65323 38.7862 8.77813 39.4689 7.98259C40.1516 7.18704 40.9025 6.78927 41.1073 6.94838C41.3121 7.18704 40.9025 8.06214 40.2198 8.85769C39.5372 9.65323 38.7862 10.1306 38.5814 9.8919ZM40.9708 13.4718C40.8342 13.2332 41.4486 12.5172 42.2678 11.9603C43.0871 11.4034 43.9063 11.1648 44.0428 11.483C44.1793 11.7217 43.5649 12.4376 42.7457 12.9945C41.9265 13.5514 41.1073 13.7901 40.9708 13.4718ZM42.4727 17.6882C42.4044 17.37 43.0871 16.8927 44.0428 16.5745C44.9985 16.3358 45.8177 16.3358 45.886 16.654C45.9543 16.9722 45.2716 17.4496 44.3159 17.7678C43.3601 18.0065 42.5409 18.0065 42.4727 17.6882ZM10.114 16.654C10.1823 16.3358 11.0015 16.3358 11.9572 16.5745C12.9129 16.8927 13.5956 17.37 13.5273 17.6882C13.4591 18.0065 12.6399 18.0065 11.6841 17.7678C10.7284 17.4496 10.0457 16.9722 10.114 16.654ZM11.9572 11.483C12.0937 11.1648 12.9129 11.4034 13.7321 11.9603C14.5514 12.5172 15.1658 13.2332 15.0292 13.4718C14.8927 13.7901 14.0735 13.5514 13.2543 12.9945C12.4351 12.4376 11.8207 11.7217 11.9572 11.483ZM35.5094 7.10749C35.2363 6.94838 35.4411 5.99373 35.919 5.03907C36.3969 4.08442 37.0113 3.36843 37.2843 3.52754C37.4891 3.68665 37.2843 4.6413 36.8065 5.59595C36.3286 6.55061 35.7142 7.2666 35.5094 7.10749ZM31.8912 5.35729C31.6182 5.27773 31.6182 4.32308 31.823 3.20932C32.096 2.09556 32.5056 1.30001 32.7787 1.37956C33.0518 1.45912 33.0518 2.41377 32.847 3.52754C32.5739 4.6413 32.1643 5.43684 31.8912 5.35729Z" fill="#0D93B0"/>
</svg>
