<svg width="128" height="128" viewBox="0 0 128 128" fill="none" xmlns="http://www.w3.org/2000/svg">
<path d="M127.932 95.5702L121.388 103.106L64.0008 53.2702L6.61428 103.106L0.0698242 95.5702L64.0008 40.051L87.2064 60.2032V47.4092H97.1872V68.8708L127.932 95.5702ZM19.5156 65.7081C13.3085 55.8657 10.1041 47.3625 10.1041 40.5473C10.1041 21.6932 19.4739 9.98091 34.5572 9.98091C44.0186 9.98091 50.9745 12.9707 55.2314 18.8671C58.1475 22.9064 58.8814 27.0984 59.0104 27.9994V28.5705H68.9913V27.9832C69.1058 27.1508 69.778 23.1781 72.5445 19.1868C76.7781 13.0782 83.8099 9.98091 93.4444 9.98091C108.528 9.98091 117.898 21.6932 117.898 40.5473C117.898 47.3625 114.693 55.866 108.486 65.7081L116.096 72.3162C123.927 60.2064 127.878 49.5753 127.878 40.5473C127.878 28.1279 124.454 17.7538 117.975 10.5468C111.862 3.7456 103.15 3.05176e-05 93.4444 3.05176e-05C77.1239 3.05176e-05 68.6097 7.34196 64.3412 13.5009C64.2252 13.6681 64.1119 13.8353 64.0008 14.0022C63.8898 13.8353 63.7765 13.6681 63.6605 13.5009C59.3922 7.34196 50.878 3.05176e-05 34.5572 3.05176e-05C24.8521 3.05176e-05 16.14 3.7456 10.0262 10.5468C3.54766 17.7535 0.123222 28.1276 0.123222 40.5473C0.123222 49.5753 4.07465 60.2067 11.9061 72.3162L19.5156 65.7081ZM89.8253 89.648C79.5151 101.021 69.0856 110.486 64.0008 114.938C58.9161 110.486 48.4868 101.021 38.1763 89.648C38.0518 89.5108 37.9295 89.3743 37.806 89.2373L30.2687 95.7828C30.4658 96.0013 30.6622 96.2199 30.8613 96.4392C45.651 112.739 60.2031 124.851 60.8154 125.359L64.0008 128L67.1862 125.359C67.7986 124.851 82.3507 112.739 97.1403 96.4392C97.3394 96.2199 97.5358 96.0013 97.7329 95.7828L90.1956 89.2373C90.0721 89.3743 89.9499 89.5108 89.8253 89.648ZM71.4865 76.6033H56.5152V91.5746H71.4865V76.6033Z" fill="url(#paint0_linear)"/>
<defs>
<linearGradient id="paint0_linear" x1="64.001" y1="3.05176e-05" x2="64.001" y2="128" gradientUnits="userSpaceOnUse">
<stop stop-color="#EF9221"/>
<stop offset="1" stop-color="#EB6013"/>
</linearGradient>
</defs>
</svg>
