<svg width="24" height="24" viewBox="0 0 24 24" fill="none" xmlns="http://www.w3.org/2000/svg">
<path d="M15.9844 18V3.98438H6.98438V18H15.9844ZM10.4062 21.5625C10.7188 21.8438 11.0781 21.9844 11.4844 21.9844C11.8906 21.9844 12.2344 21.8438 12.5156 21.5625C12.8281 21.25 12.9844 20.8906 12.9844 20.4844C12.9844 20.0781 12.8281 19.7344 12.5156 19.4531C12.2344 19.1406 11.8906 18.9844 11.4844 18.9844C11.0781 18.9844 10.7188 19.1406 10.4062 19.4531C10.125 19.7344 9.98438 20.0781 9.98438 20.4844C9.98438 20.8906 10.125 21.25 10.4062 21.5625ZM15.5156 0.984375C16.2031 0.984375 16.7812 1.23438 17.25 1.73438C17.75 2.23438 18 2.82812 18 3.51562V20.4844C18 21.1719 17.75 21.7656 17.25 22.2656C16.7812 22.7656 16.2031 23.0156 15.5156 23.0156H7.5C6.8125 23.0156 6.21875 22.7656 5.71875 22.2656C5.25 21.7656 5.01562 21.1719 5.01562 20.4844V3.51562C5.01562 2.82812 5.25 2.23438 5.71875 1.73438C6.21875 1.23438 6.8125 0.984375 7.5 0.984375H15.5156Z" fill="#0DAFB9"/>
</svg>
